<?xml version="1.0" encoding="UTF-8" standalone="no"?>
<!-- Created with Inkscape (http://www.inkscape.org/) -->

<svg
   width="129.85663mm"
   height="30.080662mm"
   viewBox="0 0 129.85663 30.080662"
   version="1.1"
   id="svg1"
   inkscape:version="1.3.2 (091e20ef0f, 2023-11-25)"
   sodipodi:docname="drawing.svg"
   xmlns:inkscape="http://www.inkscape.org/namespaces/inkscape"
   xmlns:sodipodi="http://sodipodi.sourceforge.net/DTD/sodipodi-0.dtd"
   xmlns="http://www.w3.org/2000/svg"
   xmlns:svg="http://www.w3.org/2000/svg">
  <sodipodi:namedview
     id="namedview1"
     pagecolor="#ffffff"
     bordercolor="#000000"
     borderopacity="0.25"
     inkscape:showpageshadow="2"
     inkscape:pageopacity="0.0"
     inkscape:pagecheckerboard="0"
     inkscape:deskcolor="#d1d1d1"
     inkscape:document-units="mm"
     inkscape:lockguides="false"
     inkscape:zoom="0.47372495"
     inkscape:cx="-636.44526"
     inkscape:cy="623.77968"
     inkscape:window-width="1900"
     inkscape:window-height="1028"
     inkscape:window-x="0"
     inkscape:window-y="0"
     inkscape:window-maximized="1"
     inkscape:current-layer="layer1" />
  <defs
     id="defs1" />
  <g
     inkscape:label="Layer 1"
     inkscape:groupmode="layer"
     id="layer1">
    <path
       id="path79"
       d="m 44.516209,7.679621 c 0,0.21131 -0.17145,0.38276 -0.382764,0.38276 h -1.340203 c -0.211667,0 -0.383117,-0.17145 -0.383117,-0.38276 V 5.765095 c 0,-0.211667 0.17145,-0.383117 0.383117,-0.383117 h 1.340203 c 0.211314,0 0.382764,0.17145 0.382764,0.383117 v 1.914526"
       style="fill:#254254;fill-opacity:1;fill-rule:nonzero;stroke:none;stroke-width:0.0352778" />
    <path
       id="path80"
       d="m 43.564767,8.669871 h -0.782814 v -1.33068 h 0.782814 v 1.33068"
       style="fill:#254254;fill-opacity:1;fill-rule:nonzero;stroke:none;stroke-width:0.0352778" />
    <path
       id="path81"
       d="m 34.39325,11.596511 h -1.342108 l 0.335562,-5.470524 h 0.671054 l 0.335492,5.470524"
       style="fill:#254254;fill-opacity:1;fill-rule:nonzero;stroke:none;stroke-width:0.0352778" />
    <path
       id="path82"
       d="m 39.376589,8.564391 h -2.609144 l 0.975077,-8.006649 h 0.659342 l 0.974725,8.006649"
       style="fill:#254254;fill-opacity:1;fill-rule:nonzero;stroke:none;stroke-width:0.0352778" />
    <path
       id="path83"
       d="M 45.165673,19.307181 H 32.54734 v -8.37036 h 12.618333 v 8.37036"
       style="fill:#466480;fill-opacity:1;fill-rule:nonzero;stroke:none;stroke-width:0.0352778" />
    <path
       id="path84"
       d="m 37.263097,17.320331 h -3.893749 v -1.45168 h 3.893749 v 1.45168"
       style="fill:#254254;fill-opacity:1;fill-rule:nonzero;stroke:none;stroke-width:0.0352778" />
    <path
       id="path85"
       d="m 41.673878,12.871801 v 2.42429 H 32.54734 v 2.52624 h 0.234809 v -2.3502 h 9.126679 v -2.42429 h 3.256845 v -0.17604 h -3.491795"
       style="fill:#254254;fill-opacity:1;fill-rule:nonzero;stroke:none;stroke-width:0.0352778" />
    <path
       id="path86"
       d="M 46.422267,10.971041 H 33.975208 v -0.92252 h 12.447059 v 0.92252"
       style="fill:#3b5972;fill-opacity:1;fill-rule:nonzero;stroke:none;stroke-width:0.0352778" />
    <path
       id="path87"
       d="M 46.422267,10.120141 H 33.975208 v -0.39512 h 12.447059 v 0.39512"
       style="fill:#254254;fill-opacity:1;fill-rule:nonzero;stroke:none;stroke-width:0.0352778" />
    <path
       id="path88"
       d="M 47.789987,8.867071 H 35.501678 v -0.28434 h 12.288309 v 0.28434"
       style="fill:#3b5972;fill-opacity:1;fill-rule:nonzero;stroke:none;stroke-width:0.0352778" />
    <path
       id="path89"
       d="M 47.789987,8.604961 H 35.501678 v -0.12171 h 12.288309 v 0.12171"
       style="fill:#254254;fill-opacity:1;fill-rule:nonzero;stroke:none;stroke-width:0.0352778" />
    <path
       id="path90"
       d="M 47.08549,9.732431 H 35.501678 V 9.075211 H 47.08549 v 0.65722"
       style="fill:#3b5972;fill-opacity:1;fill-rule:nonzero;stroke:none;stroke-width:0.0352778" />
    <path
       id="path91"
       d="M 47.08549,9.126361 H 35.501678 V 8.844841 H 47.08549 v 0.28152"
       style="fill:#254254;fill-opacity:1;fill-rule:nonzero;stroke:none;stroke-width:0.0352778" />
    <path
       id="path92"
       d="m 47.219192,14.077951 -2.205919,1.77694 v -2.2673 h 2.205919 v 0.49036"
       style="fill:#3b5972;fill-opacity:1;fill-rule:nonzero;stroke:none;stroke-width:0.0352778" />
    <path
       id="path93"
       d="m 31.235289,11.113911 1.456619,0.64841 v -0.82727 h -1.456619 v 0.17886"
       style="fill:#3b5972;fill-opacity:1;fill-rule:nonzero;stroke:none;stroke-width:0.0352778" />
    <path
       id="path94"
       d="m 31.235289,11.740091 1.456619,0.64841 v -0.82727 h -1.456619 v 0.17886"
       style="fill:#3b5972;fill-opacity:1;fill-rule:nonzero;stroke:none;stroke-width:0.0352778" />
    <path
       id="path95"
       d="m 31.235289,12.366271 1.456619,0.64841 v -0.82727 h -1.456619 v 0.17886"
       style="fill:#3b5972;fill-opacity:1;fill-rule:nonzero;stroke:none;stroke-width:0.0352778" />
    <path
       id="path96"
       d="M 34.172058,7.258761 H 33.152001 L 32.280816,6.369403 h 2.762603 z m -2.016513,-0.933102 0.956769,0.976492 h 1.099608 l 0.956381,-0.976492 h -3.012758"
       style="fill:#254254;fill-opacity:1;fill-rule:nonzero;stroke:none;stroke-width:0.0352778" />
    <path
       id="path97"
       d="m 33.994611,6.008159 c 0,0.09737 -0.07867,0.176389 -0.176036,0.176389 -0.09737,0 -0.176036,-0.07902 -0.176036,-0.176389 V 5.029906 c 0,-0.09737 0.07867,-0.176389 0.176036,-0.176389 0.09737,0 0.176036,0.07902 0.176036,0.176389 v 0.978253"
       style="fill:#254254;fill-opacity:1;fill-rule:nonzero;stroke:none;stroke-width:0.0352778" />
    <path
       id="path98"
       d="M 36.617161,1.174397 V 0.420864 h -0.234597 v 0.988483 h 2.994025 v -0.23495 h -2.759428"
       style="fill:#254254;fill-opacity:1;fill-rule:nonzero;stroke:none;stroke-width:0.0352778" />
    <path
       id="path99"
       d="m 38.633286,0.559153 c 0,0.07832 -0.0635,0.141817 -0.141464,0.141817 h -1.290461 c -0.07832,0 -0.141816,-0.0635 -0.141816,-0.141817 V 0.21202 c 0,-0.07832 0.0635,-0.141817 0.141816,-0.141817 h 1.290461 c 0.07796,0 0.141464,0.0635 0.141464,0.141817 z M 38.491822,0 h -1.290461 c -0.117122,0 -0.212019,0.0949 -0.212019,0.21202 v 0.347486 c 0,0.116769 0.0949,0.211666 0.212019,0.211666 h 1.290461 c 0.11677,0 0.21202,-0.0949 0.21202,-0.211666 V 0.21202 C 38.703842,0.094897 38.608592,0 38.491822,0"
       style="fill:#254254;fill-opacity:1;fill-rule:nonzero;stroke:none;stroke-width:0.0352778" />
    <path
       id="path100"
       d="m 39.171272,1.335617 h 0.146756 V 0.924983 h -0.146756 v 0.410634"
       style="fill:#254254;fill-opacity:1;fill-rule:nonzero;stroke:none;stroke-width:0.0352778" />
    <path
       id="path101"
       d="m 39.827439,0.715786 c 0,-0.05574 -0.04515,-0.100894 -0.101247,-0.100894 h -0.921456 c -0.05574,0 -0.101247,0.04516 -0.101247,0.100894 v 0.248003 c 0,0.05609 0.04551,0.101247 0.101247,0.101247 h 0.921456 c 0.05609,0 0.101247,-0.04516 0.101247,-0.101247 V 0.715786"
       style="fill:#3b5972;fill-opacity:1;fill-rule:nonzero;stroke:none;stroke-width:0.0352778" />
    <path
       id="path102"
       d="m 33.300027,6.23817 c -0.0973,0 -0.176107,-0.07867 -0.176107,-0.176036 0,-0.09737 0.07881,-0.176036 0.176107,-0.176036 h 0.97857 c 0.09737,0 0.176036,0.07867 0.176036,0.176036 0,0.09737 -0.07867,0.176036 -0.176036,0.176036 h -0.97857"
       style="fill:#466480;fill-opacity:1;fill-rule:nonzero;stroke:none;stroke-width:0.0352778" />
    <path
       id="path103"
       d="m 32.204052,6.478059 c -0.05951,0 -0.107597,-0.04833 -0.107597,-0.107597 0,-0.05927 0.04808,-0.107598 0.107597,-0.107598 h 1.095975 c 0.05937,0 0.107632,0.04833 0.107632,0.107598 0,0.05927 -0.04826,0.107597 -0.107632,0.107597 h -1.095975"
       style="fill:#466480;fill-opacity:1;fill-rule:nonzero;stroke:none;stroke-width:0.0352778" />
    <path
       id="path104"
       d="M 40.844498,3.346803 H 35.325642 V 3.033536 h 5.518856 v 0.313267"
       style="fill:#466480;fill-opacity:1;fill-rule:nonzero;stroke:none;stroke-width:0.0352778" />
    <path
       id="path105"
       d="M 39.246767,4.430889 H 36.92302 L 35.556711,3.407481 h 5.056717 z m -3.901723,-1.093964 1.554692,1.16452 h 2.370667 l 1.554692,-1.16452 h -5.480051"
       style="fill:#254254;fill-opacity:1;fill-rule:nonzero;stroke:none;stroke-width:0.0352778" />
    <path
       id="path106"
       d="M 41.613553,5.597525 H 34.556586 V 5.197123 h 7.056967 v 0.400402"
       style="fill:#466480;fill-opacity:1;fill-rule:nonzero;stroke:none;stroke-width:0.0352778" />
    <path
       id="path107"
       d="M 39.570617,6.983941 H 36.599522 L 34.852214,5.675137 h 6.465711 z m -4.988984,-1.398763 1.987903,1.488723 h 3.031067 l 1.987903,-1.488723 h -7.006873"
       style="fill:#254254;fill-opacity:1;fill-rule:nonzero;stroke:none;stroke-width:0.0352778" />
    <path
       id="path108"
       d="m 44.750453,7.084841 c 0,0.26846 -0.217664,0.48577 -0.485775,0.48577 h -1.701094 c -0.268464,0 -0.486128,-0.21731 -0.486128,-0.48577 V 4.65455 c 0,-0.268111 0.217664,-0.485775 0.486128,-0.485775 h 1.701094 c 0.268111,0 0.485775,0.217664 0.485775,0.485775 v 2.430291"
       style="fill:#466480;fill-opacity:1;fill-rule:nonzero;stroke:none;stroke-width:0.0352778" />
    <path
       id="path109"
       d="m 45.843006,8.604251 c 0,0.0579 -0.04692,0.10513 -0.105128,0.10513 -0.05786,0 -0.104775,-0.0473 -0.104775,-0.10513 V 5.104342 c 0,-0.05821 0.04692,-0.105128 0.104775,-0.105128 0.05821,0 0.105128,0.04692 0.105128,0.105128 v 3.499909"
       style="fill:#254254;fill-opacity:1;fill-rule:nonzero;stroke:none;stroke-width:0.0352778" />
    <path
       id="path110"
       d="m 46.553853,8.629301 c 0,0.0441 -0.04692,0.0801 -0.104775,0.0801 -0.05821,0 -0.105127,-0.036 -0.105127,-0.0801 V 5.970764 c 0,-0.0441 0.04692,-0.07973 0.105127,-0.07973 0.05786,0 0.104775,0.03563 0.104775,0.07973 v 2.658537"
       style="fill:#254254;fill-opacity:1;fill-rule:nonzero;stroke:none;stroke-width:0.0352778" />
    <path
       id="path111"
       d="m 46.875587,11.347801 h -3.03142 v -1.03999 h 3.03142 v 1.03999"
       style="fill:#466480;fill-opacity:1;fill-rule:nonzero;stroke:none;stroke-width:0.0352778" />
    <path
       id="path112"
       d="m 46.875587,11.169301 h -3.03142 v -0.41593 h 3.03142 v 0.41593"
       style="fill:#254254;fill-opacity:1;fill-rule:nonzero;stroke:none;stroke-width:0.0352778" />
    <path
       id="path113"
       d="m 46.875587,12.358161 h -3.03142 v -1.03999 h 3.03142 v 1.03999"
       style="fill:#466480;fill-opacity:1;fill-rule:nonzero;stroke:none;stroke-width:0.0352778" />
    <path
       id="path114"
       d="m 46.875587,12.180011 h -3.03142 v -0.41593 h 3.03142 v 0.41593"
       style="fill:#254254;fill-opacity:1;fill-rule:nonzero;stroke:none;stroke-width:0.0352778" />
    <path
       id="path115"
       d="m 46.875587,13.368871 h -3.03142 v -1.04035 h 3.03142 v 1.04035"
       style="fill:#466480;fill-opacity:1;fill-rule:nonzero;stroke:none;stroke-width:0.0352778" />
    <path
       id="path116"
       d="m 46.875587,13.190361 h -3.03142 v -0.41592 h 3.03142 v 0.41592"
       style="fill:#254254;fill-opacity:1;fill-rule:nonzero;stroke:none;stroke-width:0.0352778" />
    <path
       id="path117"
       d="m 125.8449,22.940431 c -1.63795,1.44745 -1.02729,2.38055 -1.80552,2.38055 H 1.415659 c -0.778179,0 -1.409044,-0.63077 -1.409044,-1.409 v -5.1502 c 0.404728,-0.22578 0.630865,-0.13935 1.409044,-0.13935 H 129.73428 c 0.1337,0 0.29139,1.08726 -0.32597,1.7526 -0.75565,0.81351 -1.52047,0.76024 -3.56341,2.5654"
       style="fill:#466480;fill-opacity:1;fill-rule:nonzero;stroke:none;stroke-width:0.0352778" />
    <path
       id="path118"
       d="M 126.81963,25.383421 H 3.131457 c -1.244247,0 -2.259711,0.96838 -2.340599,2.19216 h 2.497127 v 0.62618 c 0,0.51894 0.420581,0.93945 0.939412,0.93945 h 1.095974 c 0.518831,0 0.939412,-0.42051 0.939412,-0.93945 v -0.62618 h 7.669743 c 0.51883,0 1.36024,0.42051 1.879494,0.93945 l 1.566968,1.56563 H 126.81963 c 1.29716,0 2.34844,-1.05163 2.34844,-2.34845 0,-1.29716 -1.05128,-2.34879 -2.34844,-2.34879"
       style="fill:#e4355c;fill-opacity:1;fill-rule:nonzero;stroke:none;stroke-width:0.0352778" />
    <path
       id="path119"
       d="m 129.07352,27.076051 c -0.28434,-0.97755 -1.18498,-1.69263 -2.25389,-1.69263 H 3.131457 c -1.068811,0 -1.966877,0.71543 -2.250754,1.69263 H 129.07352"
       style="fill:#f2736d;fill-opacity:1;fill-rule:nonzero;stroke:none;stroke-width:0.0352778" />
    <path
       id="path120"
       d="m 40.23772,18.622431 v 5.97853 h 20.353867 v -5.97853 H 40.23772"
       style="fill:#3b5972;fill-opacity:1;fill-rule:nonzero;stroke:none;stroke-width:0.0352778" />
    <path
       id="path121"
       d="m 90.730807,17.790231 v 5.51886 h 9.824513 v -5.51886 h -9.824513"
       style="fill:#3b5972;fill-opacity:1;fill-rule:nonzero;stroke:none;stroke-width:0.0352778" />
    <path
       id="path122"
       d="m 17.848783,18.622431 v 5.97853 h 8.141441 v -5.97853 h -8.141441"
       style="fill:#3b5972;fill-opacity:1;fill-rule:nonzero;stroke:none;stroke-width:0.0352778" />
    <path
       id="path123"
       d="M 6.262783,23.034981 H 4.383959 v -4.0707 h 1.878824 v 4.0707"
       style="fill:#3b5972;fill-opacity:1;fill-rule:nonzero;stroke:none;stroke-width:0.0352778" />
    <path
       id="path124"
       d="M 8.767753,23.034981 H 6.888964 v -4.0707 h 1.878789 v 4.0707"
       style="fill:#3b5972;fill-opacity:1;fill-rule:nonzero;stroke:none;stroke-width:0.0352778" />
    <path
       id="path125"
       d="M 11.272898,23.034981 H 9.394074 v -4.0707 h 1.878824 v 4.0707"
       style="fill:#3b5972;fill-opacity:1;fill-rule:nonzero;stroke:none;stroke-width:0.0352778" />
    <path
       id="path126"
       d="M 13.778044,23.034981 H 11.89922 v -4.0707 h 1.878824 v 4.0707"
       style="fill:#3b5972;fill-opacity:1;fill-rule:nonzero;stroke:none;stroke-width:0.0352778" />
    <path
       id="path127"
       d="m 16.283049,23.034981 h -1.878824 v -4.0707 h 1.878824 v 4.0707"
       style="fill:#3b5972;fill-opacity:1;fill-rule:nonzero;stroke:none;stroke-width:0.0352778" />
    <path
       id="path128"
       d="m 60.917907,24.583321 c 0,0.40781 -0.33055,0.73836 -0.73836,0.73836 H 0.738491 C 0.330592,25.321681 0,24.991131 0,24.583321 v -0.12312 c 0,-0.40781 0.330592,-0.73836 0.738491,-0.73836 h 59.441056 c 0.40781,0 0.73836,0.33055 0.73836,0.73836 v 0.12312"
       style="fill:#254254;fill-opacity:1;fill-rule:nonzero;stroke:none;stroke-width:0.0352778" />
    <path
       id="path129"
       d="m 40.290636,22.609531 c 0,0.30586 -0.248355,0.55421 -0.554566,0.55421 H 26.38791 c -0.30607,0 -0.554249,-0.24835 -0.554249,-0.55421 v -0.0924 c 0,-0.30621 0.248179,-0.55457 0.554249,-0.55457 h 13.34816 c 0.306211,0 0.554566,0.24836 0.554566,0.55457 v 0.0924"
       style="fill:#254254;fill-opacity:1;fill-rule:nonzero;stroke:none;stroke-width:0.0352778" />
    <path
       id="path130"
       d="m 18.371035,23.392341 c 0,0.30586 -0.248179,0.55422 -0.554391,0.55422 H 4.468556 c -0.306176,0 -0.554391,-0.24836 -0.554391,-0.55422 v -0.0924 c 0,-0.30621 0.248215,-0.55421 0.554391,-0.55421 h 13.348088 c 0.306212,0 0.554391,0.248 0.554391,0.55421 v 0.0924"
       style="fill:#254254;fill-opacity:1;fill-rule:nonzero;stroke:none;stroke-width:0.0352778" />
    <path
       id="path131"
       d="m 19.257812,21.625981 h -0.782849 v -2.1918 h 0.782849 v 2.1918"
       style="fill:#466480;fill-opacity:1;fill-rule:nonzero;stroke:none;stroke-width:0.0352778" />
    <path
       id="path132"
       d="m 20.745265,21.625981 h -0.78285 v -2.1918 h 0.78285 v 2.1918"
       style="fill:#466480;fill-opacity:1;fill-rule:nonzero;stroke:none;stroke-width:0.0352778" />
    <path
       id="path133"
       d="m 22.232576,21.625981 h -0.782708 v -2.1918 h 0.782708 v 2.1918"
       style="fill:#466480;fill-opacity:1;fill-rule:nonzero;stroke:none;stroke-width:0.0352778" />
    <path
       id="path134"
       d="m 23.720028,21.625981 h -0.782849 v -2.1918 h 0.782849 v 2.1918"
       style="fill:#466480;fill-opacity:1;fill-rule:nonzero;stroke:none;stroke-width:0.0352778" />
    <path
       id="path135"
       d="m 25.207339,21.625981 h -0.782708 v -2.1918 h 0.782708 v 2.1918"
       style="fill:#466480;fill-opacity:1;fill-rule:nonzero;stroke:none;stroke-width:0.0352778" />
    <path
       id="path136"
       d="M 60.513267,20.608221 H 40.210909 v -1.17404 h 20.302358 v 1.17404"
       style="fill:#254254;fill-opacity:1;fill-rule:nonzero;stroke:none;stroke-width:0.0352778" />
    <path
       id="path137"
       d="m 41.617434,22.190081 c 0,0.20602 -0.167217,0.37359 -0.373592,0.37359 -0.206375,0 -0.373592,-0.16757 -0.373592,-0.37359 0,-0.20638 0.167217,-0.3736 0.373592,-0.3736 0.206375,0 0.373592,0.16722 0.373592,0.3736"
       style="fill:#254254;fill-opacity:1;fill-rule:nonzero;stroke:none;stroke-width:0.0352778" />
    <path
       id="path138"
       d="m 43.314648,22.190081 c 0,0.20602 -0.167217,0.37359 -0.373592,0.37359 -0.206022,0 -0.373239,-0.16757 -0.373239,-0.37359 0,-0.20638 0.167217,-0.3736 0.373239,-0.3736 0.206375,0 0.373592,0.16722 0.373592,0.3736"
       style="fill:#254254;fill-opacity:1;fill-rule:nonzero;stroke:none;stroke-width:0.0352778" />
    <path
       id="path139"
       d="m 45.011862,22.190081 c 0,0.20602 -0.167217,0.37359 -0.373239,0.37359 -0.206375,0 -0.373592,-0.16757 -0.373592,-0.37359 0,-0.20638 0.167217,-0.3736 0.373592,-0.3736 0.206022,0 0.373239,0.16722 0.373239,0.3736"
       style="fill:#254254;fill-opacity:1;fill-rule:nonzero;stroke:none;stroke-width:0.0352778" />
    <path
       id="path140"
       d="m 46.709428,22.190081 c 0,0.20602 -0.167569,0.37359 -0.373591,0.37359 -0.206375,0 -0.373592,-0.16757 -0.373592,-0.37359 0,-0.20638 0.167217,-0.3736 0.373592,-0.3736 0.206022,0 0.373591,0.16722 0.373591,0.3736"
       style="fill:#254254;fill-opacity:1;fill-rule:nonzero;stroke:none;stroke-width:0.0352778" />
    <path
       id="path141"
       d="m 48.406642,22.190081 c 0,0.20602 -0.167216,0.37359 -0.373591,0.37359 -0.206375,0 -0.373592,-0.16757 -0.373592,-0.37359 0,-0.20638 0.167217,-0.3736 0.373592,-0.3736 0.206375,0 0.373591,0.16722 0.373591,0.3736"
       style="fill:#254254;fill-opacity:1;fill-rule:nonzero;stroke:none;stroke-width:0.0352778" />
    <path
       id="path142"
       d="m 50.103857,22.190081 c 0,0.20602 -0.16722,0.37359 -0.37359,0.37359 -0.206377,0 -0.373594,-0.16757 -0.373594,-0.37359 0,-0.20638 0.167217,-0.3736 0.373594,-0.3736 0.20637,0 0.37359,0.16722 0.37359,0.3736"
       style="fill:#254254;fill-opacity:1;fill-rule:nonzero;stroke:none;stroke-width:0.0352778" />
    <path
       id="path143"
       d="m 51.801067,22.190081 c 0,0.20602 -0.16721,0.37359 -0.37359,0.37359 -0.20637,0 -0.37359,-0.16757 -0.37359,-0.37359 0,-0.20638 0.16722,-0.3736 0.37359,-0.3736 0.20638,0 0.37359,0.16722 0.37359,0.3736"
       style="fill:#254254;fill-opacity:1;fill-rule:nonzero;stroke:none;stroke-width:0.0352778" />
    <path
       id="path144"
       d="m 53.498287,22.190081 c 0,0.20602 -0.16722,0.37359 -0.37359,0.37359 -0.20603,0 -0.3736,-0.16757 -0.3736,-0.37359 0,-0.20638 0.16757,-0.3736 0.3736,-0.3736 0.20637,0 0.37359,0.16722 0.37359,0.3736"
       style="fill:#254254;fill-opacity:1;fill-rule:nonzero;stroke:none;stroke-width:0.0352778" />
    <path
       id="path145"
       d="m 55.195497,22.190081 c 0,0.20602 -0.16722,0.37359 -0.37359,0.37359 -0.20602,0 -0.37324,-0.16757 -0.37324,-0.37359 0,-0.20638 0.16722,-0.3736 0.37324,-0.3736 0.20637,0 0.37359,0.16722 0.37359,0.3736"
       style="fill:#254254;fill-opacity:1;fill-rule:nonzero;stroke:none;stroke-width:0.0352778" />
    <path
       id="path146"
       d="m 56.892717,22.190081 c 0,0.20602 -0.16722,0.37359 -0.37324,0.37359 -0.20638,0 -0.3736,-0.16757 -0.3736,-0.37359 0,-0.20638 0.16722,-0.3736 0.3736,-0.3736 0.20602,0 0.37324,0.16722 0.37324,0.3736"
       style="fill:#254254;fill-opacity:1;fill-rule:nonzero;stroke:none;stroke-width:0.0352778" />
    <path
       id="path147"
       d="m 58.590277,22.190081 c 0,0.20602 -0.16721,0.37359 -0.37359,0.37359 -0.20637,0 -0.37359,-0.16757 -0.37359,-0.37359 0,-0.20638 0.16722,-0.3736 0.37359,-0.3736 0.20638,0 0.37359,0.16722 0.37359,0.3736"
       style="fill:#254254;fill-opacity:1;fill-rule:nonzero;stroke:none;stroke-width:0.0352778" />
    <path
       id="path148"
       d="m 62.467307,23.739831 c 0,0.20602 -0.16722,0.37324 -0.37324,0.37324 -0.20637,0 -0.37359,-0.16722 -0.37359,-0.37324 0,-0.20638 0.16722,-0.37359 0.37359,-0.37359 0.20602,0 0.37324,0.16721 0.37324,0.37359"
       style="fill:#254254;fill-opacity:1;fill-rule:nonzero;stroke:none;stroke-width:0.0352778" />
    <path
       id="path149"
       d="m 64.164877,23.739831 c 0,0.20602 -0.16722,0.37324 -0.37359,0.37324 -0.20638,0 -0.3736,-0.16722 -0.3736,-0.37324 0,-0.20638 0.16722,-0.37359 0.3736,-0.37359 0.20637,0 0.37359,0.16721 0.37359,0.37359"
       style="fill:#254254;fill-opacity:1;fill-rule:nonzero;stroke:none;stroke-width:0.0352778" />
    <path
       id="path150"
       d="m 65.862087,23.739831 c 0,0.20602 -0.16722,0.37324 -0.37359,0.37324 -0.20638,0 -0.37359,-0.16722 -0.37359,-0.37324 0,-0.20638 0.16721,-0.37359 0.37359,-0.37359 0.20637,0 0.37359,0.16721 0.37359,0.37359"
       style="fill:#254254;fill-opacity:1;fill-rule:nonzero;stroke:none;stroke-width:0.0352778" />
    <path
       id="path151"
       d="m 67.559307,23.739831 c 0,0.20602 -0.16722,0.37324 -0.3736,0.37324 -0.20637,0 -0.37359,-0.16722 -0.37359,-0.37324 0,-0.20638 0.16722,-0.37359 0.37359,-0.37359 0.20638,0 0.3736,0.16721 0.3736,0.37359"
       style="fill:#254254;fill-opacity:1;fill-rule:nonzero;stroke:none;stroke-width:0.0352778" />
    <path
       id="path152"
       d="m 69.256517,23.739831 c 0,0.20602 -0.16722,0.37324 -0.37359,0.37324 -0.20638,0 -0.37359,-0.16722 -0.37359,-0.37324 0,-0.20638 0.16721,-0.37359 0.37359,-0.37359 0.20637,0 0.37359,0.16721 0.37359,0.37359"
       style="fill:#254254;fill-opacity:1;fill-rule:nonzero;stroke:none;stroke-width:0.0352778" />
    <path
       id="path153"
       d="m 70.953727,23.739831 c 0,0.20602 -0.16721,0.37324 -0.37359,0.37324 -0.20602,0 -0.37324,-0.16722 -0.37324,-0.37324 0,-0.20638 0.16722,-0.37359 0.37324,-0.37359 0.20638,0 0.37359,0.16721 0.37359,0.37359"
       style="fill:#254254;fill-opacity:1;fill-rule:nonzero;stroke:none;stroke-width:0.0352778" />
    <path
       id="path154"
       d="m 72.650947,23.739831 c 0,0.20602 -0.16722,0.37324 -0.37359,0.37324 -0.20603,0 -0.37324,-0.16722 -0.37324,-0.37324 0,-0.20638 0.16721,-0.37359 0.37324,-0.37359 0.20637,0 0.37359,0.16721 0.37359,0.37359"
       style="fill:#254254;fill-opacity:1;fill-rule:nonzero;stroke:none;stroke-width:0.0352778" />
    <path
       id="path155"
       d="m 74.348157,23.739831 c 0,0.20602 -0.16722,0.37324 -0.37324,0.37324 -0.20637,0 -0.37359,-0.16722 -0.37359,-0.37324 0,-0.20638 0.16722,-0.37359 0.37359,-0.37359 0.20602,0 0.37324,0.16721 0.37324,0.37359"
       style="fill:#254254;fill-opacity:1;fill-rule:nonzero;stroke:none;stroke-width:0.0352778" />
    <path
       id="path156"
       d="m 76.045727,23.739831 c 0,0.20602 -0.16722,0.37324 -0.37359,0.37324 -0.20638,0 -0.3736,-0.16722 -0.3736,-0.37324 0,-0.20638 0.16722,-0.37359 0.3736,-0.37359 0.20637,0 0.37359,0.16721 0.37359,0.37359"
       style="fill:#254254;fill-opacity:1;fill-rule:nonzero;stroke:none;stroke-width:0.0352778" />
    <path
       id="path157"
       d="m 77.742937,23.739831 c 0,0.20602 -0.16721,0.37324 -0.37359,0.37324 -0.20637,0 -0.37359,-0.16722 -0.37359,-0.37324 0,-0.20638 0.16722,-0.37359 0.37359,-0.37359 0.20638,0 0.37359,0.16721 0.37359,0.37359"
       style="fill:#254254;fill-opacity:1;fill-rule:nonzero;stroke:none;stroke-width:0.0352778" />
    <path
       id="path158"
       d="m 79.440157,23.739831 c 0,0.20602 -0.16722,0.37324 -0.3736,0.37324 -0.20637,0 -0.37359,-0.16722 -0.37359,-0.37324 0,-0.20638 0.16722,-0.37359 0.37359,-0.37359 0.20638,0 0.3736,0.16721 0.3736,0.37359"
       style="fill:#254254;fill-opacity:1;fill-rule:nonzero;stroke:none;stroke-width:0.0352778" />
    <path
       id="path159"
       d="m 129.7759,18.761781 c 0.15628,-0.54716 0.0519,-1.07879 -0.0416,-1.07879 H 1.415659 c -0.664214,0 -1.219701,0.46002 -1.368531,1.07879 H 129.7759"
       style="fill:#254254;fill-opacity:1;fill-rule:nonzero;stroke:none;stroke-width:0.0352778" />
    <path
       id="path160"
       d="M 40.10825,19.668771 H 26.034709 v -0.46954 H 40.10825 v 0.46954"
       style="fill:#254254;fill-opacity:1;fill-rule:nonzero;stroke:none;stroke-width:0.0352778" />
    <path
       id="path161"
       d="M 40.10825,20.285431 H 26.034709 v -0.4699 H 40.10825 v 0.4699"
       style="fill:#254254;fill-opacity:1;fill-rule:nonzero;stroke:none;stroke-width:0.0352778" />
    <path
       id="path162"
       d="m 92.922967,22.956661 h -32.64429 v -1.64394 h 32.64429 v 1.64394"
       style="fill:#3b5972;fill-opacity:1;fill-rule:nonzero;stroke:none;stroke-width:0.0352778" />
    <path
       id="path163"
       d="m 65.375257,20.629031 h -3.88691 v -0.97155 h 3.88691 v 0.97155"
       style="fill:#254254;fill-opacity:1;fill-rule:nonzero;stroke:none;stroke-width:0.0352778" />
    <path
       id="path164"
       d="m 69.586007,20.629031 h -3.8869 v -0.97155 h 3.8869 v 0.97155"
       style="fill:#254254;fill-opacity:1;fill-rule:nonzero;stroke:none;stroke-width:0.0352778" />
    <path
       id="path165"
       d="m 73.796417,20.629031 h -3.88656 v -0.97155 h 3.88656 v 0.97155"
       style="fill:#254254;fill-opacity:1;fill-rule:nonzero;stroke:none;stroke-width:0.0352778" />
    <path
       id="path166"
       d="m 78.007167,20.629031 h -3.8869 v -0.97155 h 3.8869 v 0.97155"
       style="fill:#254254;fill-opacity:1;fill-rule:nonzero;stroke:none;stroke-width:0.0352778" />
    <path
       id="path167"
       d="m 82.055997,20.629031 h -3.8869 v -0.97155 h 3.8869 v 0.97155"
       style="fill:#254254;fill-opacity:1;fill-rule:nonzero;stroke:none;stroke-width:0.0352778" />
    <path
       id="path168"
       d="m 86.266407,20.629031 h -3.88656 v -0.97155 h 3.88656 v 0.97155"
       style="fill:#254254;fill-opacity:1;fill-rule:nonzero;stroke:none;stroke-width:0.0352778" />
    <path
       id="path169"
       d="m 90.639087,20.629031 h -3.88656 v -0.97155 h 3.88656 v 0.97155"
       style="fill:#254254;fill-opacity:1;fill-rule:nonzero;stroke:none;stroke-width:0.0352778" />
    <path
       id="path170"
       d="m 114.32812,23.174331 c 0,0.40781 -0.33056,0.73836 -0.73837,0.73836 H 81.175117 c -0.40781,0 -0.73872,-0.33055 -0.73872,-0.73836 v -0.12312 c 0,-0.40782 0.33091,-0.73837 0.73872,-0.73837 h 32.414633 c 0.40781,0 0.73837,0.33055 0.73837,0.73837 v 0.12312"
       style="fill:#254254;fill-opacity:1;fill-rule:nonzero;stroke:none;stroke-width:0.0352778" />
    <path
       id="path171"
       d="m 120.77443,20.132321 c 0,0.2533 -0.20567,0.45932 -0.45932,0.45932 H 100.1535 c -0.253643,0 -0.459313,-0.20602 -0.459313,-0.45932 v -0.0766 c 0,-0.25365 0.20567,-0.45932 0.459313,-0.45932 h 20.16161 c 0.25365,0 0.45932,0.20567 0.45932,0.45932 v 0.0766"
       style="fill:#254254;fill-opacity:1;fill-rule:nonzero;stroke:none;stroke-width:0.0352778" />
    <path
       id="path172"
       d="m 62.467307,22.173851 c 0,0.20637 -0.16722,0.37359 -0.37324,0.37359 -0.20637,0 -0.37359,-0.16722 -0.37359,-0.37359 0,-0.20638 0.16722,-0.37324 0.37359,-0.37324 0.20602,0 0.37324,0.16686 0.37324,0.37324"
       style="fill:#254254;fill-opacity:1;fill-rule:nonzero;stroke:none;stroke-width:0.0352778" />
    <path
       id="path173"
       d="m 64.164877,22.173851 c 0,0.20637 -0.16722,0.37359 -0.37359,0.37359 -0.20638,0 -0.3736,-0.16722 -0.3736,-0.37359 0,-0.20638 0.16722,-0.37324 0.3736,-0.37324 0.20637,0 0.37359,0.16686 0.37359,0.37324"
       style="fill:#254254;fill-opacity:1;fill-rule:nonzero;stroke:none;stroke-width:0.0352778" />
    <path
       id="path174"
       d="m 65.862087,22.173851 c 0,0.20637 -0.16722,0.37359 -0.37359,0.37359 -0.20638,0 -0.37359,-0.16722 -0.37359,-0.37359 0,-0.20638 0.16721,-0.37324 0.37359,-0.37324 0.20637,0 0.37359,0.16686 0.37359,0.37324"
       style="fill:#254254;fill-opacity:1;fill-rule:nonzero;stroke:none;stroke-width:0.0352778" />
    <path
       id="path175"
       d="m 67.559307,22.173851 c 0,0.20637 -0.16722,0.37359 -0.3736,0.37359 -0.20637,0 -0.37359,-0.16722 -0.37359,-0.37359 0,-0.20638 0.16722,-0.37324 0.37359,-0.37324 0.20638,0 0.3736,0.16686 0.3736,0.37324"
       style="fill:#254254;fill-opacity:1;fill-rule:nonzero;stroke:none;stroke-width:0.0352778" />
    <path
       id="path176"
       d="m 69.256517,22.173851 c 0,0.20637 -0.16722,0.37359 -0.37359,0.37359 -0.20638,0 -0.37359,-0.16722 -0.37359,-0.37359 0,-0.20638 0.16721,-0.37324 0.37359,-0.37324 0.20637,0 0.37359,0.16686 0.37359,0.37324"
       style="fill:#254254;fill-opacity:1;fill-rule:nonzero;stroke:none;stroke-width:0.0352778" />
    <path
       id="path177"
       d="m 70.953727,22.173851 c 0,0.20637 -0.16721,0.37359 -0.37359,0.37359 -0.20602,0 -0.37324,-0.16722 -0.37324,-0.37359 0,-0.20638 0.16722,-0.37324 0.37324,-0.37324 0.20638,0 0.37359,0.16686 0.37359,0.37324"
       style="fill:#254254;fill-opacity:1;fill-rule:nonzero;stroke:none;stroke-width:0.0352778" />
    <path
       id="path178"
       d="m 72.650947,22.173851 c 0,0.20637 -0.16722,0.37359 -0.37359,0.37359 -0.20603,0 -0.37324,-0.16722 -0.37324,-0.37359 0,-0.20638 0.16721,-0.37324 0.37324,-0.37324 0.20637,0 0.37359,0.16686 0.37359,0.37324"
       style="fill:#254254;fill-opacity:1;fill-rule:nonzero;stroke:none;stroke-width:0.0352778" />
    <path
       id="path179"
       d="m 74.348157,22.173851 c 0,0.20637 -0.16722,0.37359 -0.37324,0.37359 -0.20637,0 -0.37359,-0.16722 -0.37359,-0.37359 0,-0.20638 0.16722,-0.37324 0.37359,-0.37324 0.20602,0 0.37324,0.16686 0.37324,0.37324"
       style="fill:#254254;fill-opacity:1;fill-rule:nonzero;stroke:none;stroke-width:0.0352778" />
    <path
       id="path180"
       d="m 76.045727,22.173851 c 0,0.20637 -0.16722,0.37359 -0.37359,0.37359 -0.20638,0 -0.3736,-0.16722 -0.3736,-0.37359 0,-0.20638 0.16722,-0.37324 0.3736,-0.37324 0.20637,0 0.37359,0.16686 0.37359,0.37324"
       style="fill:#254254;fill-opacity:1;fill-rule:nonzero;stroke:none;stroke-width:0.0352778" />
    <path
       id="path181"
       d="m 77.742937,22.173851 c 0,0.20637 -0.16721,0.37359 -0.37359,0.37359 -0.20637,0 -0.37359,-0.16722 -0.37359,-0.37359 0,-0.20638 0.16722,-0.37324 0.37359,-0.37324 0.20638,0 0.37359,0.16686 0.37359,0.37324"
       style="fill:#254254;fill-opacity:1;fill-rule:nonzero;stroke:none;stroke-width:0.0352778" />
    <path
       id="path182"
       d="m 79.440157,22.173851 c 0,0.20637 -0.16722,0.37359 -0.3736,0.37359 -0.20637,0 -0.37359,-0.16722 -0.37359,-0.37359 0,-0.20638 0.16722,-0.37324 0.37359,-0.37324 0.20638,0 0.3736,0.16686 0.3736,0.37324"
       style="fill:#254254;fill-opacity:1;fill-rule:nonzero;stroke:none;stroke-width:0.0352778" />
    <path
       id="path183"
       d="m 55.262527,17.518241 h 0.30198 l 0.23953,-0.30198 -1.34055,0.0681 0.79904,0.23389"
       style="fill:#254254;fill-opacity:1;fill-rule:nonzero;stroke:none;stroke-width:0.0352778" />
    <path
       id="path184"
       d="m 56.393527,17.105491 c -0.65969,0.0198 -3.36514,0.0988 -4.9022,0.0988 l -2.325507,-0.10337 0.0042,-0.0578 c -0.06421,-0.061 -0.139348,-0.16193 -0.195792,-0.26706 l -0.427567,-0.84066 0.0092,0.0589 0.401814,0.95955 c 0.04586,0.10513 0.110773,0.20638 0.168981,0.26741 l -0.0099,0.0575 2.315281,0.10337 c 1.75965,0 5.0606,-0.10337 5.0606,-0.10337 0,-0.0624 -0.0342,-0.11959 -0.0991,-0.17321"
       style="fill:#254254;fill-opacity:1;fill-rule:nonzero;stroke:none;stroke-width:0.0352778" />
    <path
       id="path185"
       d="m 56.492667,17.190511 c 0,-0.30198 -0.79058,-0.47978 -2.01613,-0.7172 -0.80786,-0.15628 -1.86302,-0.002 -2.67053,0.12136 -0.17109,0.0261 -1.74766,0.22119 -1.99108,0.22119 l -0.753529,-0.85302 c -0.04057,-0.0459 -0.09419,-0.0801 -0.123119,-0.0801 h -0.359481 c -0.02858,0 -0.03704,0.0342 -0.01693,0.0801 l 0.395816,0.90276 c 0.04586,0.10513 0.110773,0.20602 0.168981,0.26705 l -0.0099,0.0579 2.315282,0.10336 c 1.75965,0 5.0606,-0.10336 5.0606,-0.10336"
       style="fill:#3b5972;fill-opacity:1;fill-rule:nonzero;stroke:none;stroke-width:0.0352778" />
    <path
       id="path186"
       d="m 54.022867,17.435691 c 0,0.0328 -0.0265,0.0593 -0.0593,0.0593 h -3.54506 c -0.0328,0 -0.0593,-0.0265 -0.0593,-0.0593 0,-0.0328 0.0265,-0.0593 0.0593,-0.0593 0,0 1.84397,-0.56621 2.39289,-0.5468 l 1.15217,0.5468 c 0.0328,0 0.0593,0.0265 0.0593,0.0593"
       style="fill:#466480;fill-opacity:1;fill-rule:nonzero;stroke:none;stroke-width:0.0352778" />
    <path
       id="path187"
       d="m 54.022867,17.435691 c 0,0.0328 -0.0265,0.0593 -0.0593,0.0593 h -3.54506 c -0.0328,0 -0.0593,-0.0265 -0.0593,-0.0593 0,-0.0328 0.0265,-0.0593 0.0593,-0.0593 h 3.54506 c 0.0328,0 0.0593,0.0265 0.0593,0.0593"
       style="fill:#254254;fill-opacity:1;fill-rule:nonzero;stroke:none;stroke-width:0.0352778" />
    <path
       id="path188"
       d="m 53.920207,16.428161 0.31291,0.37994 c 0.0744,0.0903 0.19897,0.15945 0.28258,0.15945 h 1.80763 c -0.29421,-0.18027 -0.95532,-0.32173 -1.84679,-0.49424 -0.1397,-0.0272 -0.33126,-0.0413 -0.55633,-0.0451"
       style="fill:#254254;fill-opacity:1;fill-rule:nonzero;stroke:none;stroke-width:0.0352778" />
    <path
       id="path189"
       d="m 52.264267,17.528821 c 0,0.0861 -0.0699,0.15628 -0.15593,0.15628 h -0.073 c -0.0864,0 -0.15628,-0.0702 -0.15628,-0.15628 0,-0.0864 0.0698,-0.15628 0.15628,-0.15628 h 0.073 c 0.0861,0 0.15593,0.0699 0.15593,0.15628"
       style="fill:#3b5972;fill-opacity:1;fill-rule:nonzero;stroke:none;stroke-width:0.0352778" />
    <path
       id="path190"
       d="m 52.076947,17.528821 c 0,0.0861 -0.0699,0.15628 -0.15628,0.15628 h -0.0727 c -0.0864,0 -0.15628,-0.0702 -0.15628,-0.15628 0,-0.0864 0.0699,-0.15628 0.15628,-0.15628 h 0.0727 c 0.0864,0 0.15628,0.0699 0.15628,0.15628"
       style="fill:#254254;fill-opacity:1;fill-rule:nonzero;stroke:none;stroke-width:0.0352778" />
    <path
       id="path191"
       d="m 55.679157,17.528821 c 0,0.0861 -0.0699,0.15628 -0.15628,0.15628 h -0.0727 c -0.0864,0 -0.15628,-0.0702 -0.15628,-0.15628 0,-0.0864 0.0698,-0.15628 0.15628,-0.15628 h 0.0727 c 0.0864,0 0.15628,0.0699 0.15628,0.15628"
       style="fill:#3b5972;fill-opacity:1;fill-rule:nonzero;stroke:none;stroke-width:0.0352778" />
    <path
       id="path192"
       d="m 55.491827,17.528821 c 0,0.0861 -0.0702,0.15628 -0.15628,0.15628 h -0.073 c -0.0861,0 -0.15628,-0.0702 -0.15628,-0.15628 0,-0.0864 0.0702,-0.15628 0.15628,-0.15628 h 0.073 c 0.0861,0 0.15628,0.0699 0.15628,0.15628"
       style="fill:#254254;fill-opacity:1;fill-rule:nonzero;stroke:none;stroke-width:0.0352778" />
    <path
       id="path193"
       d="m 63.423687,17.518241 h 0.30198 l 0.23953,-0.30198 -1.34055,0.0681 0.79904,0.23389"
       style="fill:#254254;fill-opacity:1;fill-rule:nonzero;stroke:none;stroke-width:0.0352778" />
    <path
       id="path194"
       d="m 64.554697,17.105491 c -0.6597,0.0198 -3.36515,0.0988 -4.90256,0.0988 l -2.32551,-0.10337 0.005,-0.0578 c -0.0646,-0.061 -0.13935,-0.16193 -0.19615,-0.26706 l -0.42756,-0.84066 0.01,0.0589 0.40146,0.95955 c 0.0462,0.10513 0.11113,0.20638 0.16934,0.26741 l -0.01,0.0575 2.31493,0.10337 c 1.75965,0 5.06095,-0.10337 5.06095,-0.10337 0,-0.0624 -0.0346,-0.11959 -0.0991,-0.17321"
       style="fill:#254254;fill-opacity:1;fill-rule:nonzero;stroke:none;stroke-width:0.0352778" />
    <path
       id="path195"
       d="m 64.653827,17.190511 c 0,-0.30198 -0.79058,-0.47978 -2.01613,-0.7172 -0.80786,-0.15628 -1.86302,-0.002 -2.67053,0.12136 -0.17109,0.0261 -1.74766,0.22119 -1.99107,0.22119 l -0.75354,-0.85302 c -0.0406,-0.0459 -0.0942,-0.0801 -0.12312,-0.0801 h -0.35948 c -0.0289,0 -0.037,0.0342 -0.0173,0.0801 l 0.39581,0.90276 c 0.0462,0.10513 0.11113,0.20602 0.16934,0.26705 l -0.01,0.0579 2.31493,0.10336 c 1.75965,0 5.06095,-0.10336 5.06095,-0.10336"
       style="fill:#3b5972;fill-opacity:1;fill-rule:nonzero;stroke:none;stroke-width:0.0352778" />
    <path
       id="path196"
       d="m 62.184027,17.435691 c 0,0.0328 -0.0268,0.0593 -0.0596,0.0593 h -3.54471 c -0.0328,0 -0.0593,-0.0265 -0.0593,-0.0593 0,-0.0328 0.0265,-0.0593 0.0593,-0.0593 0,0 1.84397,-0.56621 2.39289,-0.5468 l 1.15182,0.5468 c 0.0328,0 0.0596,0.0265 0.0596,0.0593"
       style="fill:#466480;fill-opacity:1;fill-rule:nonzero;stroke:none;stroke-width:0.0352778" />
    <path
       id="path197"
       d="m 62.184027,17.435691 c 0,0.0328 -0.0268,0.0593 -0.0596,0.0593 h -3.54471 c -0.0328,0 -0.0593,-0.0265 -0.0593,-0.0593 0,-0.0328 0.0265,-0.0593 0.0593,-0.0593 h 3.54471 c 0.0328,0 0.0596,0.0265 0.0596,0.0593"
       style="fill:#254254;fill-opacity:1;fill-rule:nonzero;stroke:none;stroke-width:0.0352778" />
    <path
       id="path198"
       d="m 62.081367,16.428161 0.31292,0.37994 c 0.0741,0.0903 0.19896,0.15945 0.28257,0.15945 h 1.80763 c -0.29421,-0.18027 -0.95532,-0.32173 -1.84679,-0.49424 -0.14005,-0.0272 -0.33126,-0.0413 -0.55633,-0.0451"
       style="fill:#254254;fill-opacity:1;fill-rule:nonzero;stroke:none;stroke-width:0.0352778" />
    <path
       id="path199"
       d="m 60.425427,17.528821 c 0,0.0861 -0.0698,0.15628 -0.15628,0.15628 h -0.0727 c -0.0864,0 -0.15628,-0.0702 -0.15628,-0.15628 0,-0.0864 0.0699,-0.15628 0.15628,-0.15628 h 0.0727 c 0.0864,0 0.15628,0.0699 0.15628,0.15628"
       style="fill:#3b5972;fill-opacity:1;fill-rule:nonzero;stroke:none;stroke-width:0.0352778" />
    <path
       id="path200"
       d="m 60.238107,17.528821 c 0,0.0861 -0.0699,0.15628 -0.15628,0.15628 h -0.073 c -0.0861,0 -0.15593,-0.0702 -0.15593,-0.15628 0,-0.0864 0.0699,-0.15628 0.15593,-0.15628 h 0.073 c 0.0864,0 0.15628,0.0699 0.15628,0.15628"
       style="fill:#254254;fill-opacity:1;fill-rule:nonzero;stroke:none;stroke-width:0.0352778" />
    <path
       id="path201"
       d="m 63.840317,17.528821 c 0,0.0861 -0.0698,0.15628 -0.15628,0.15628 h -0.073 c -0.0861,0 -0.15593,-0.0702 -0.15593,-0.15628 0,-0.0864 0.0699,-0.15628 0.15593,-0.15628 h 0.073 c 0.0864,0 0.15628,0.0699 0.15628,0.15628"
       style="fill:#3b5972;fill-opacity:1;fill-rule:nonzero;stroke:none;stroke-width:0.0352778" />
    <path
       id="path202"
       d="m 63.652637,17.528821 c 0,0.0861 -0.0698,0.15628 -0.15592,0.15628 h -0.073 c -0.0864,0 -0.15628,-0.0702 -0.15628,-0.15628 0,-0.0864 0.0699,-0.15628 0.15628,-0.15628 h 0.073 c 0.0861,0 0.15592,0.0699 0.15592,0.15628"
       style="fill:#254254;fill-opacity:1;fill-rule:nonzero;stroke:none;stroke-width:0.0352778" />
    <path
       id="path203"
       d="m 71.584847,17.518241 h 0.30198 l 0.23954,-0.30198 -1.34056,0.0681 0.79904,0.23389"
       style="fill:#254254;fill-opacity:1;fill-rule:nonzero;stroke:none;stroke-width:0.0352778" />
    <path
       id="path204"
       d="m 72.715507,17.105491 c -0.65935,0.0198 -3.3648,0.0988 -4.9022,0.0988 l -2.32552,-0.10337 0.004,-0.0578 c -0.0642,-0.061 -0.13935,-0.16193 -0.19579,-0.26706 l -0.42757,-0.84066 0.009,0.0589 0.40181,0.95955 c 0.0462,0.10513 0.11113,0.20638 0.16934,0.26741 l -0.0102,0.0575 2.31528,0.10337 c 1.75965,0 5.06095,-0.10337 5.06095,-0.10337 0,-0.0624 -0.0346,-0.11959 -0.0995,-0.17321"
       style="fill:#254254;fill-opacity:1;fill-rule:nonzero;stroke:none;stroke-width:0.0352778" />
    <path
       id="path205"
       d="m 72.814987,17.190511 c 0,-0.30198 -0.79093,-0.47978 -2.01648,-0.7172 -0.80751,-0.15628 -1.86267,-0.002 -2.67017,0.12136 -0.17145,0.0261 -1.74767,0.22119 -1.99108,0.22119 l -0.75389,-0.85302 c -0.0402,-0.0459 -0.0942,-0.0801 -0.12312,-0.0801 h -0.35913 c -0.0289,0 -0.0374,0.0342 -0.0173,0.0801 l 0.39581,0.90276 c 0.0462,0.10513 0.11113,0.20602 0.16934,0.26705 l -0.0102,0.0579 2.31528,0.10336 c 1.75965,0 5.06095,-0.10336 5.06095,-0.10336"
       style="fill:#3b5972;fill-opacity:1;fill-rule:nonzero;stroke:none;stroke-width:0.0352778" />
    <path
       id="path206"
       d="m 70.344837,17.435691 c 0,0.0328 -0.0265,0.0593 -0.0593,0.0593 h -3.54471 c -0.0328,0 -0.0596,-0.0265 -0.0596,-0.0593 0,-0.0328 0.0268,-0.0593 0.0596,-0.0593 0,0 1.84397,-0.56621 2.39289,-0.5468 l 1.15182,0.5468 c 0.0328,0 0.0593,0.0265 0.0593,0.0593"
       style="fill:#466480;fill-opacity:1;fill-rule:nonzero;stroke:none;stroke-width:0.0352778" />
    <path
       id="path207"
       d="m 70.344837,17.435691 c 0,0.0328 -0.0265,0.0593 -0.0593,0.0593 h -3.54471 c -0.0328,0 -0.0596,-0.0265 -0.0596,-0.0593 0,-0.0328 0.0268,-0.0593 0.0596,-0.0593 h 3.54471 c 0.0328,0 0.0593,0.0265 0.0593,0.0593"
       style="fill:#254254;fill-opacity:1;fill-rule:nonzero;stroke:none;stroke-width:0.0352778" />
    <path
       id="path208"
       d="m 70.242177,16.428161 0.31327,0.37994 c 0.0741,0.0903 0.19896,0.15945 0.28222,0.15945 h 1.80799 c -0.29457,-0.18027 -0.95533,-0.32173 -1.84715,-0.49424 -0.1397,-0.0272 -0.33126,-0.0413 -0.55633,-0.0451"
       style="fill:#254254;fill-opacity:1;fill-rule:nonzero;stroke:none;stroke-width:0.0352778" />
    <path
       id="path209"
       d="m 68.586587,17.528821 c 0,0.0861 -0.0699,0.15628 -0.15628,0.15628 h -0.073 c -0.0861,0 -0.15593,-0.0702 -0.15593,-0.15628 0,-0.0864 0.0699,-0.15628 0.15593,-0.15628 h 0.073 c 0.0864,0 0.15628,0.0699 0.15628,0.15628"
       style="fill:#3b5972;fill-opacity:1;fill-rule:nonzero;stroke:none;stroke-width:0.0352778" />
    <path
       id="path210"
       d="m 68.399267,17.528821 c 0,0.0861 -0.0702,0.15628 -0.15628,0.15628 h -0.073 c -0.0861,0 -0.15628,-0.0702 -0.15628,-0.15628 0,-0.0864 0.0702,-0.15628 0.15628,-0.15628 h 0.073 c 0.0861,0 0.15628,0.0699 0.15628,0.15628"
       style="fill:#254254;fill-opacity:1;fill-rule:nonzero;stroke:none;stroke-width:0.0352778" />
    <path
       id="path211"
       d="m 72.001477,17.528821 c 0,0.0861 -0.0702,0.15628 -0.15628,0.15628 h -0.073 c -0.0861,0 -0.15628,-0.0702 -0.15628,-0.15628 0,-0.0864 0.0702,-0.15628 0.15628,-0.15628 h 0.073 c 0.0861,0 0.15628,0.0699 0.15628,0.15628"
       style="fill:#3b5972;fill-opacity:1;fill-rule:nonzero;stroke:none;stroke-width:0.0352778" />
    <path
       id="path212"
       d="m 71.813807,17.528821 c 0,0.0861 -0.0698,0.15628 -0.15629,0.15628 h -0.0727 c -0.0864,0 -0.15628,-0.0702 -0.15628,-0.15628 0,-0.0864 0.0699,-0.15628 0.15628,-0.15628 h 0.0727 c 0.0864,0 0.15629,0.0699 0.15629,0.15628"
       style="fill:#254254;fill-opacity:1;fill-rule:nonzero;stroke:none;stroke-width:0.0352778" />
    <path
       id="path213"
       d="m 79.746007,17.518241 h 0.30198 l 0.23954,-0.30198 -1.34056,0.0681 0.79904,0.23389"
       style="fill:#254254;fill-opacity:1;fill-rule:nonzero;stroke:none;stroke-width:0.0352778" />
    <path
       id="path214"
       d="m 80.876667,17.105491 c -0.6597,0.0198 -3.36515,0.0988 -4.9022,0.0988 l -2.32551,-0.10337 0.004,-0.0578 c -0.0642,-0.061 -0.13935,-0.16193 -0.19579,-0.26706 l -0.42757,-0.84066 0.009,0.0589 0.40182,0.95955 c 0.0459,0.10513 0.11112,0.20638 0.16933,0.26741 l -0.0102,0.0575 2.31528,0.10337 c 1.75966,0 5.06095,-0.10337 5.06095,-0.10337 0,-0.0624 -0.0346,-0.11959 -0.0995,-0.17321"
       style="fill:#254254;fill-opacity:1;fill-rule:nonzero;stroke:none;stroke-width:0.0352778" />
    <path
       id="path215"
       d="m 80.976147,17.190511 c 0,-0.30198 -0.79093,-0.47978 -2.01648,-0.7172 -0.80751,-0.15628 -1.86266,-0.002 -2.67017,0.12136 -0.17145,0.0261 -1.74802,0.22119 -1.99143,0.22119 l -0.75354,-0.85302 c -0.0402,-0.0459 -0.0942,-0.0801 -0.12312,-0.0801 h -0.35912 c -0.0289,0 -0.0374,0.0342 -0.0173,0.0801 l 0.39582,0.90276 c 0.0459,0.10513 0.11112,0.20602 0.16933,0.26705 l -0.0102,0.0579 2.31528,0.10336 c 1.75966,0 5.06095,-0.10336 5.06095,-0.10336"
       style="fill:#3b5972;fill-opacity:1;fill-rule:nonzero;stroke:none;stroke-width:0.0352778" />
    <path
       id="path216"
       d="m 78.505997,17.435691 c 0,0.0328 -0.0265,0.0593 -0.0593,0.0593 h -3.54506 c -0.0328,0 -0.0593,-0.0265 -0.0593,-0.0593 0,-0.0328 0.0265,-0.0593 0.0593,-0.0593 0,0 1.84397,-0.56621 2.39289,-0.5468 l 1.15217,0.5468 c 0.0328,0 0.0593,0.0265 0.0593,0.0593"
       style="fill:#466480;fill-opacity:1;fill-rule:nonzero;stroke:none;stroke-width:0.0352778" />
    <path
       id="path217"
       d="m 78.505997,17.435691 c 0,0.0328 -0.0265,0.0593 -0.0593,0.0593 h -3.54506 c -0.0328,0 -0.0593,-0.0265 -0.0593,-0.0593 0,-0.0328 0.0265,-0.0593 0.0593,-0.0593 h 3.54506 c 0.0328,0 0.0593,0.0265 0.0593,0.0593"
       style="fill:#254254;fill-opacity:1;fill-rule:nonzero;stroke:none;stroke-width:0.0352778" />
    <path
       id="path218"
       d="m 78.403337,16.428161 0.31292,0.37994 c 0.0744,0.0903 0.19896,0.15945 0.28257,0.15945 h 1.80763 c -0.29421,-0.18027 -0.95532,-0.32173 -1.84679,-0.49424 -0.1397,-0.0272 -0.33126,-0.0413 -0.55633,-0.0451"
       style="fill:#254254;fill-opacity:1;fill-rule:nonzero;stroke:none;stroke-width:0.0352778" />
    <path
       id="path219"
       d="m 76.747757,17.528821 c 0,0.0861 -0.0702,0.15628 -0.15628,0.15628 h -0.073 c -0.0861,0 -0.15628,-0.0702 -0.15628,-0.15628 0,-0.0864 0.0702,-0.15628 0.15628,-0.15628 h 0.073 c 0.0861,0 0.15628,0.0699 0.15628,0.15628"
       style="fill:#3b5972;fill-opacity:1;fill-rule:nonzero;stroke:none;stroke-width:0.0352778" />
    <path
       id="path220"
       d="m 76.560077,17.528821 c 0,0.0861 -0.0699,0.15628 -0.15593,0.15628 h -0.073 c -0.0864,0 -0.15629,-0.0702 -0.15629,-0.15628 0,-0.0864 0.0698,-0.15628 0.15629,-0.15628 h 0.073 c 0.0861,0 0.15593,0.0699 0.15593,0.15628"
       style="fill:#254254;fill-opacity:1;fill-rule:nonzero;stroke:none;stroke-width:0.0352778" />
    <path
       id="path221"
       d="m 80.162287,17.528821 c 0,0.0861 -0.0699,0.15628 -0.15593,0.15628 h -0.073 c -0.0864,0 -0.15628,-0.0702 -0.15628,-0.15628 0,-0.0864 0.0699,-0.15628 0.15628,-0.15628 h 0.073 c 0.0861,0 0.15593,0.0699 0.15593,0.15628"
       style="fill:#3b5972;fill-opacity:1;fill-rule:nonzero;stroke:none;stroke-width:0.0352778" />
    <path
       id="path222"
       d="m 79.974967,17.528821 c 0,0.0861 -0.0699,0.15628 -0.15628,0.15628 h -0.0727 c -0.0864,0 -0.15628,-0.0702 -0.15628,-0.15628 0,-0.0864 0.0699,-0.15628 0.15628,-0.15628 h 0.0727 c 0.0864,0 0.15628,0.0699 0.15628,0.15628"
       style="fill:#254254;fill-opacity:1;fill-rule:nonzero;stroke:none;stroke-width:0.0352778" />
    <path
       id="path223"
       d="m 96.067977,17.518241 h 0.30198 l 0.23954,-0.30198 -1.34056,0.0681 0.79904,0.23389"
       style="fill:#254254;fill-opacity:1;fill-rule:nonzero;stroke:none;stroke-width:0.0352778" />
    <path
       id="path224"
       d="m 97.198987,17.105491 c -0.65969,0.0198 -3.36515,0.0988 -4.9022,0.0988 l -2.32586,-0.10337 0.005,-0.0578 c -0.0646,-0.061 -0.13935,-0.16193 -0.19614,-0.26706 l -0.42757,-0.84066 0.01,0.0589 0.40146,0.95955 c 0.0462,0.10513 0.11112,0.20638 0.16933,0.26741 l -0.01,0.0575 2.31493,0.10337 c 1.75966,0 5.06095,-0.10337 5.06095,-0.10337 0,-0.0624 -0.0346,-0.11959 -0.0991,-0.17321"
       style="fill:#254254;fill-opacity:1;fill-rule:nonzero;stroke:none;stroke-width:0.0352778" />
    <path
       id="path225"
       d="m 97.298117,17.190511 c 0,-0.30198 -0.79057,-0.47978 -2.01612,-0.7172 -0.80787,-0.15628 -1.86302,-0.002 -2.67053,0.12136 -0.1711,0.0261 -1.74766,0.22119 -1.99108,0.22119 l -0.75353,-0.85302 c -0.0406,-0.0459 -0.0942,-0.0801 -0.12312,-0.0801 h -0.35948 c -0.0289,0 -0.037,0.0342 -0.0169,0.0801 l 0.39547,0.90276 c 0.0462,0.10513 0.11112,0.20602 0.16933,0.26705 l -0.01,0.0579 2.31493,0.10336 c 1.75966,0 5.06095,-0.10336 5.06095,-0.10336"
       style="fill:#3b5972;fill-opacity:1;fill-rule:nonzero;stroke:none;stroke-width:0.0352778" />
    <path
       id="path226"
       d="m 94.828317,17.435691 c 0,0.0328 -0.0268,0.0593 -0.0593,0.0593 h -3.54507 c -0.0328,0 -0.0593,-0.0265 -0.0593,-0.0593 0,-0.0328 0.0264,-0.0593 0.0593,-0.0593 0,0 1.84397,-0.56621 2.39289,-0.5468 l 1.15218,0.5468 c 0.0324,0 0.0593,0.0265 0.0593,0.0593"
       style="fill:#466480;fill-opacity:1;fill-rule:nonzero;stroke:none;stroke-width:0.0352778" />
    <path
       id="path227"
       d="m 94.828317,17.435691 c 0,0.0328 -0.0268,0.0593 -0.0593,0.0593 h -3.54507 c -0.0328,0 -0.0593,-0.0265 -0.0593,-0.0593 0,-0.0328 0.0264,-0.0593 0.0593,-0.0593 h 3.54507 c 0.0324,0 0.0593,0.0265 0.0593,0.0593"
       style="fill:#254254;fill-opacity:1;fill-rule:nonzero;stroke:none;stroke-width:0.0352778" />
    <path
       id="path228"
       d="m 94.725667,16.428161 0.31291,0.37994 c 0.0741,0.0903 0.19897,0.15945 0.28257,0.15945 h 1.80764 c -0.29422,-0.18027 -0.95532,-0.32173 -1.84679,-0.49424 -0.14006,-0.0272 -0.33126,-0.0413 -0.55633,-0.0451"
       style="fill:#254254;fill-opacity:1;fill-rule:nonzero;stroke:none;stroke-width:0.0352778" />
    <path
       id="path229"
       d="m 93.069727,17.528821 c 0,0.0861 -0.0699,0.15628 -0.15628,0.15628 h -0.0727 c -0.0864,0 -0.15628,-0.0702 -0.15628,-0.15628 0,-0.0864 0.0699,-0.15628 0.15628,-0.15628 h 0.0727 c 0.0864,0 0.15628,0.0699 0.15628,0.15628"
       style="fill:#3b5972;fill-opacity:1;fill-rule:nonzero;stroke:none;stroke-width:0.0352778" />
    <path
       id="path230"
       d="m 92.882397,17.528821 c 0,0.0861 -0.0699,0.15628 -0.15628,0.15628 h -0.073 c -0.0861,0 -0.15593,-0.0702 -0.15593,-0.15628 0,-0.0864 0.0699,-0.15628 0.15593,-0.15628 h 0.073 c 0.0864,0 0.15628,0.0699 0.15628,0.15628"
       style="fill:#254254;fill-opacity:1;fill-rule:nonzero;stroke:none;stroke-width:0.0352778" />
    <path
       id="path231"
       d="m 96.484617,17.528821 c 0,0.0861 -0.0699,0.15628 -0.15629,0.15628 h -0.073 c -0.0861,0 -0.15593,-0.0702 -0.15593,-0.15628 0,-0.0864 0.0699,-0.15628 0.15593,-0.15628 h 0.073 c 0.0864,0 0.15629,0.0699 0.15629,0.15628"
       style="fill:#3b5972;fill-opacity:1;fill-rule:nonzero;stroke:none;stroke-width:0.0352778" />
    <path
       id="path232"
       d="m 96.297287,17.528821 c 0,0.0861 -0.0702,0.15628 -0.15628,0.15628 h -0.073 c -0.0861,0 -0.15628,-0.0702 -0.15628,-0.15628 0,-0.0864 0.0702,-0.15628 0.15628,-0.15628 h 0.073 c 0.0861,0 0.15628,0.0699 0.15628,0.15628"
       style="fill:#254254;fill-opacity:1;fill-rule:nonzero;stroke:none;stroke-width:0.0352778" />
    <path
       id="path233"
       d="m 104.22915,17.518241 h 0.30197 l 0.23954,-0.30198 -1.34056,0.0681 0.79905,0.23389"
       style="fill:#254254;fill-opacity:1;fill-rule:nonzero;stroke:none;stroke-width:0.0352778" />
    <path
       id="path234"
       d="m 105.3598,17.105491 c -0.65934,0.0198 -3.3648,0.0988 -4.9022,0.0988 l -2.325513,-0.10337 0.004,-0.0578 c -0.0642,-0.061 -0.13935,-0.16193 -0.19579,-0.26706 l -0.42757,-0.84066 0.009,0.0589 0.40182,0.95955 c 0.0462,0.10513 0.11112,0.20638 0.16933,0.26741 l -0.0102,0.0575 2.315283,0.10337 c 1.75966,0 5.06095,-0.10337 5.06095,-0.10337 0,-0.0624 -0.0346,-0.11959 -0.0995,-0.17321"
       style="fill:#254254;fill-opacity:1;fill-rule:nonzero;stroke:none;stroke-width:0.0352778" />
    <path
       id="path235"
       d="m 105.45928,17.190511 c 0,-0.30198 -0.79093,-0.47978 -2.01648,-0.7172 -0.8075,-0.15628 -1.86266,-0.002 -2.67017,0.12136 -0.1711,0.0261 -1.747663,0.22119 -1.991083,0.22119 l -0.75388,-0.85302 c -0.0402,-0.0459 -0.0942,-0.0801 -0.12277,-0.0801 h -0.35948 c -0.0289,0 -0.0374,0.0342 -0.0173,0.0801 l 0.39582,0.90276 c 0.0462,0.10513 0.11112,0.20602 0.16933,0.26705 l -0.0102,0.0579 2.315283,0.10336 c 1.75966,0 5.06095,-0.10336 5.06095,-0.10336"
       style="fill:#3b5972;fill-opacity:1;fill-rule:nonzero;stroke:none;stroke-width:0.0352778" />
    <path
       id="path236"
       d="m 102.98913,17.435691 c 0,0.0328 -0.0265,0.0593 -0.0593,0.0593 h -3.544723 c -0.0328,0 -0.0596,-0.0265 -0.0596,-0.0593 0,-0.0328 0.0268,-0.0593 0.0596,-0.0593 0,0 1.843973,-0.56621 2.392903,-0.5468 l 1.15182,0.5468 c 0.0328,0 0.0593,0.0265 0.0593,0.0593"
       style="fill:#466480;fill-opacity:1;fill-rule:nonzero;stroke:none;stroke-width:0.0352778" />
    <path
       id="path237"
       d="m 102.98913,17.435691 c 0,0.0328 -0.0265,0.0593 -0.0593,0.0593 h -3.544723 c -0.0328,0 -0.0596,-0.0265 -0.0596,-0.0593 0,-0.0328 0.0268,-0.0593 0.0596,-0.0593 h 3.544723 c 0.0328,0 0.0593,0.0265 0.0593,0.0593"
       style="fill:#254254;fill-opacity:1;fill-rule:nonzero;stroke:none;stroke-width:0.0352778" />
    <path
       id="path238"
       d="m 102.88647,16.428161 0.31327,0.37994 c 0.0741,0.0903 0.19897,0.15945 0.28222,0.15945 h 1.80799 c -0.29422,-0.18027 -0.95532,-0.32173 -1.84715,-0.49424 -0.1397,-0.0272 -0.33125,-0.0413 -0.55633,-0.0451"
       style="fill:#254254;fill-opacity:1;fill-rule:nonzero;stroke:none;stroke-width:0.0352778" />
    <path
       id="path239"
       d="m 101.23089,17.528821 c 0,0.0861 -0.0699,0.15628 -0.15628,0.15628 h -0.0727 c -0.0864,0 -0.15628,-0.0702 -0.15628,-0.15628 0,-0.0864 0.0699,-0.15628 0.15628,-0.15628 h 0.0727 c 0.0864,0 0.15628,0.0699 0.15628,0.15628"
       style="fill:#3b5972;fill-opacity:1;fill-rule:nonzero;stroke:none;stroke-width:0.0352778" />
    <path
       id="path240"
       d="m 101.04356,17.528821 c 0,0.0861 -0.0702,0.15628 -0.15628,0.15628 h -0.073 c -0.0861,0 -0.15628,-0.0702 -0.15628,-0.15628 0,-0.0864 0.0702,-0.15628 0.15628,-0.15628 h 0.073 c 0.0861,0 0.15628,0.0699 0.15628,0.15628"
       style="fill:#254254;fill-opacity:1;fill-rule:nonzero;stroke:none;stroke-width:0.0352778" />
    <path
       id="path241"
       d="m 104.64578,17.528821 c 0,0.0861 -0.0702,0.15628 -0.15628,0.15628 h -0.073 c -0.0861,0 -0.15628,-0.0702 -0.15628,-0.15628 0,-0.0864 0.0702,-0.15628 0.15628,-0.15628 h 0.073 c 0.0861,0 0.15628,0.0699 0.15628,0.15628"
       style="fill:#3b5972;fill-opacity:1;fill-rule:nonzero;stroke:none;stroke-width:0.0352778" />
    <path
       id="path242"
       d="m 104.4581,17.528821 c 0,0.0861 -0.0699,0.15628 -0.15628,0.15628 h -0.0727 c -0.0864,0 -0.15628,-0.0702 -0.15628,-0.15628 0,-0.0864 0.0698,-0.15628 0.15628,-0.15628 h 0.0727 c 0.0864,0 0.15628,0.0699 0.15628,0.15628"
       style="fill:#254254;fill-opacity:1;fill-rule:nonzero;stroke:none;stroke-width:0.0352778" />
    <path
       id="path243"
       d="m 120.55112,17.518241 h 0.30197 l 0.23954,-0.30198 -1.3402,0.0681 0.79869,0.23389"
       style="fill:#254254;fill-opacity:1;fill-rule:nonzero;stroke:none;stroke-width:0.0352778" />
    <path
       id="path244"
       d="m 121.68212,17.105491 c -0.65969,0.0198 -3.36515,0.0988 -4.9022,0.0988 l -2.32551,-0.10337 0.004,-0.0578 c -0.0642,-0.061 -0.13934,-0.16193 -0.19579,-0.26706 l -0.42756,-0.84066 0.009,0.0589 0.40181,0.95955 c 0.0459,0.10513 0.11077,0.20638 0.16898,0.26741 l -0.01,0.0575 2.31529,0.10337 c 1.75965,0 5.06059,-0.10337 5.06059,-0.10337 0,-0.0624 -0.0342,-0.11959 -0.0991,-0.17321"
       style="fill:#254254;fill-opacity:1;fill-rule:nonzero;stroke:none;stroke-width:0.0352778" />
    <path
       id="path245"
       d="m 121.78125,17.190511 c 0,-0.30198 -0.79057,-0.47978 -2.01612,-0.7172 -0.80786,-0.15628 -1.86302,-0.002 -2.67018,0.12136 -0.17145,0.0261 -1.74801,0.22119 -1.99143,0.22119 l -0.75353,-0.85302 c -0.0402,-0.0459 -0.0942,-0.0801 -0.12312,-0.0801 h -0.35913 c -0.0289,0 -0.0374,0.0342 -0.0173,0.0801 l 0.39581,0.90276 c 0.0459,0.10513 0.11077,0.20602 0.16898,0.26705 l -0.01,0.0579 2.31529,0.10336 c 1.75965,0 5.06059,-0.10336 5.06059,-0.10336"
       style="fill:#3b5972;fill-opacity:1;fill-rule:nonzero;stroke:none;stroke-width:0.0352778" />
    <path
       id="path246"
       d="m 119.31146,17.435691 c 0,0.0328 -0.0265,0.0593 -0.0593,0.0593 h -3.54507 c -0.0328,0 -0.0593,-0.0265 -0.0593,-0.0593 0,-0.0328 0.0265,-0.0593 0.0593,-0.0593 0,0 1.84397,-0.56621 2.3929,-0.5468 l 1.15217,0.5468 c 0.0328,0 0.0593,0.0265 0.0593,0.0593"
       style="fill:#466480;fill-opacity:1;fill-rule:nonzero;stroke:none;stroke-width:0.0352778" />
    <path
       id="path247"
       d="m 119.31146,17.435691 c 0,0.0328 -0.0265,0.0593 -0.0593,0.0593 h -3.54507 c -0.0328,0 -0.0593,-0.0265 -0.0593,-0.0593 0,-0.0328 0.0265,-0.0593 0.0593,-0.0593 h 3.54507 c 0.0328,0 0.0593,0.0265 0.0593,0.0593"
       style="fill:#254254;fill-opacity:1;fill-rule:nonzero;stroke:none;stroke-width:0.0352778" />
    <path
       id="path248"
       d="m 119.2088,16.428161 0.31291,0.37994 c 0.0744,0.0903 0.19897,0.15945 0.28258,0.15945 h 1.80763 c -0.29422,-0.18027 -0.95532,-0.32173 -1.84679,-0.49424 -0.1397,-0.0272 -0.33126,-0.0413 -0.55633,-0.0451"
       style="fill:#254254;fill-opacity:1;fill-rule:nonzero;stroke:none;stroke-width:0.0352778" />
    <path
       id="path249"
       d="m 117.55321,17.528821 c 0,0.0861 -0.0702,0.15628 -0.15628,0.15628 h -0.073 c -0.0861,0 -0.15629,-0.0702 -0.15629,-0.15628 0,-0.0864 0.0702,-0.15628 0.15629,-0.15628 h 0.073 c 0.0861,0 0.15628,0.0699 0.15628,0.15628"
       style="fill:#3b5972;fill-opacity:1;fill-rule:nonzero;stroke:none;stroke-width:0.0352778" />
    <path
       id="path250"
       d="m 117.36553,17.528821 c 0,0.0861 -0.0699,0.15628 -0.15628,0.15628 h -0.0727 c -0.0864,0 -0.15628,-0.0702 -0.15628,-0.15628 0,-0.0864 0.0699,-0.15628 0.15628,-0.15628 h 0.0727 c 0.0864,0 0.15628,0.0699 0.15628,0.15628"
       style="fill:#254254;fill-opacity:1;fill-rule:nonzero;stroke:none;stroke-width:0.0352778" />
    <path
       id="path251"
       d="m 120.96775,17.528821 c 0,0.0861 -0.0699,0.15628 -0.15628,0.15628 h -0.0727 c -0.0864,0 -0.15628,-0.0702 -0.15628,-0.15628 0,-0.0864 0.0699,-0.15628 0.15628,-0.15628 h 0.0727 c 0.0864,0 0.15628,0.0699 0.15628,0.15628"
       style="fill:#3b5972;fill-opacity:1;fill-rule:nonzero;stroke:none;stroke-width:0.0352778" />
    <path
       id="path252"
       d="m 120.78042,17.528821 c 0,0.0861 -0.0699,0.15628 -0.15628,0.15628 h -0.073 c -0.0861,0 -0.15593,-0.0702 -0.15593,-0.15628 0,-0.0864 0.0699,-0.15628 0.15593,-0.15628 h 0.073 c 0.0864,0 0.15628,0.0699 0.15628,0.15628"
       style="fill:#254254;fill-opacity:1;fill-rule:nonzero;stroke:none;stroke-width:0.0352778" />
    <path
       id="path253"
       d="M 1.612717,17.041991 H 1.412766 v -0.41663 h 0.06656 l 0.133392,0.41663"
       style="fill:#3b5972;fill-opacity:1;fill-rule:nonzero;stroke:none;stroke-width:0.0352778" />
    <path
       id="path254"
       d="m 7.111108,17.041991 h 0.199919 v -0.41663 h -0.06667 l -0.133244,0.41663"
       style="fill:#3b5972;fill-opacity:1;fill-rule:nonzero;stroke:none;stroke-width:0.0352778" />
    <path
       id="path255"
       d="m 4.479739,17.608551 c 0,0.0448 -0.03612,0.0808 -0.08061,0.0808 -0.04466,0 -0.08079,-0.036 -0.08079,-0.0808 v -0.22154 c 0,-0.0448 0.03612,-0.0808 0.08079,-0.0808 0.04449,0 0.08061,0.036 0.08061,0.0808 v 0.22154"
       style="fill:#254254;fill-opacity:1;fill-rule:nonzero;stroke:none;stroke-width:0.0352778" />
    <path
       id="path256"
       d="m 2.382228,17.608551 c 0,0.0448 -0.03612,0.0808 -0.08065,0.0808 -0.04463,0 -0.08075,-0.036 -0.08075,-0.0808 v -0.22154 c 0,-0.0448 0.03612,-0.0808 0.08075,-0.0808 0.04452,0 0.08065,0.036 0.08065,0.0808 v 0.22154"
       style="fill:#254254;fill-opacity:1;fill-rule:nonzero;stroke:none;stroke-width:0.0352778" />
    <path
       id="path257"
       d="m 4.591887,16.852191 c -0.06724,-0.52563 -0.138466,-0.76094 -0.196639,-0.76094 -0.05828,0 -0.12954,0.23531 -0.196779,0.76094 h 0.393418"
       style="fill:#254254;fill-opacity:1;fill-rule:nonzero;stroke:none;stroke-width:0.0352778" />
    <path
       id="path258"
       d="m 1.383824,17.033881 0.04038,-0.0402 h 5.919351 l 0.04039,0.0402 -0.04039,0.0402 c 0,0 -2.223312,0.36301 -2.964569,0.36301 -0.738611,0 -2.954782,-0.36301 -2.954782,-0.36301 l -0.04038,-0.0402"
       style="fill:#254254;fill-opacity:1;fill-rule:nonzero;stroke:none;stroke-width:0.0352778" />
    <path
       id="path259"
       d="m 5.444903,17.336211 c -0.0798,-0.43039 -0.517172,-0.76059 -1.049655,-0.76059 -0.532482,0 -0.969998,0.3302 -1.049796,0.76059 h 2.099451"
       style="fill:#3b5972;fill-opacity:1;fill-rule:nonzero;stroke:none;stroke-width:0.0352778" />
    <path
       id="path260"
       d="m 1.383824,17.033881 0.04038,-0.0402 h 5.919351 l 0.04039,0.0402 -0.04039,0.0402 H 1.424204 l -0.04038,-0.0402"
       style="fill:#254254;fill-opacity:1;fill-rule:nonzero;stroke:none;stroke-width:0.0352778" />
    <path
       id="path261"
       d="m 5.444903,17.336211 c -0.0798,-0.43039 -0.517172,-0.76059 -1.049655,-0.76059 -0.532482,0 -0.969998,0.3302 -1.049796,0.76059 0,0 0.786307,0.18203 1.053677,0.18168 0.265395,0 1.045774,-0.18168 1.045774,-0.18168"
       style="fill:#3b5972;fill-opacity:1;fill-rule:nonzero;stroke:none;stroke-width:0.0352778" />
    <path
       id="path262"
       d="m 5.012327,16.806331 c -0.174025,-0.115 -0.385409,-0.18591 -0.617079,-0.18591 -0.231775,0 -0.443018,0.0709 -0.61722,0.18591 0.139877,0.2406 0.36255,0.39864 0.61722,0.39864 0.25453,0 0.477203,-0.15804 0.617079,-0.39864"
       style="fill:#254254;fill-opacity:1;fill-rule:nonzero;stroke:none;stroke-width:0.0352778" />
    <path
       id="path263"
       d="m 2.412531,17.548231 h -0.0707 v -0.41346 h 0.0707 v 0.41346"
       style="fill:#254254;fill-opacity:1;fill-rule:nonzero;stroke:none;stroke-width:0.0352778" />
    <path
       id="path264"
       d="m 6.4058,17.608551 c 0,0.0448 0.03612,0.0808 0.08061,0.0808 0.04466,0 0.08079,-0.036 0.08079,-0.0808 v -0.22154 c 0,-0.0448 -0.03612,-0.0808 -0.08079,-0.0808 -0.04448,0 -0.08061,0.036 -0.08061,0.0808 v 0.22154"
       style="fill:#254254;fill-opacity:1;fill-rule:nonzero;stroke:none;stroke-width:0.0352778" />
    <path
       id="path265"
       d="m 6.375496,17.548231 h 0.0707 v -0.41346 h -0.0707 v 0.41346"
       style="fill:#254254;fill-opacity:1;fill-rule:nonzero;stroke:none;stroke-width:0.0352778" />
    <path
       id="path266"
       d="M 8.100509,17.041991 H 7.900554 v -0.41663 h 0.06671 l 0.133244,0.41663"
       style="fill:#3b5972;fill-opacity:1;fill-rule:nonzero;stroke:none;stroke-width:0.0352778" />
    <path
       id="path267"
       d="m 13.598904,17.041991 h 0.199954 v -0.41663 h -0.06671 l -0.133244,0.41663"
       style="fill:#3b5972;fill-opacity:1;fill-rule:nonzero;stroke:none;stroke-width:0.0352778" />
    <path
       id="path268"
       d="m 10.967534,17.608551 c 0,0.0448 -0.03612,0.0808 -0.08061,0.0808 -0.04466,0 -0.08075,-0.036 -0.08075,-0.0808 v -0.22154 c 0,-0.0448 0.03609,-0.0808 0.08075,-0.0808 0.04449,0 0.08061,0.036 0.08061,0.0808 v 0.22154"
       style="fill:#254254;fill-opacity:1;fill-rule:nonzero;stroke:none;stroke-width:0.0352778" />
    <path
       id="path269"
       d="m 8.870023,17.608551 c 0,0.0448 -0.03612,0.0808 -0.08061,0.0808 -0.04466,0 -0.08061,-0.036 -0.08061,-0.0808 v -0.22154 c 0,-0.0448 0.03595,-0.0808 0.08061,-0.0808 0.04449,0 0.08061,0.036 0.08061,0.0808 v 0.22154"
       style="fill:#254254;fill-opacity:1;fill-rule:nonzero;stroke:none;stroke-width:0.0352778" />
    <path
       id="path270"
       d="m 11.079858,16.852191 c -0.06741,-0.52563 -0.138641,-0.76094 -0.196814,-0.76094 -0.05814,0 -0.129505,0.23531 -0.19678,0.76094 h 0.393594"
       style="fill:#254254;fill-opacity:1;fill-rule:nonzero;stroke:none;stroke-width:0.0352778" />
    <path
       id="path271"
       d="m 7.871768,17.033881 0.04039,-0.0402 h 5.919364 l 0.04022,0.0402 -0.04022,0.0402 c 0,0 -2.223488,0.36301 -2.964744,0.36301 -0.738611,0 -2.95462,-0.36301 -2.95462,-0.36301 l -0.04039,-0.0402"
       style="fill:#254254;fill-opacity:1;fill-rule:nonzero;stroke:none;stroke-width:0.0352778" />
    <path
       id="path272"
       d="m 11.932699,17.336211 c -0.07966,-0.43039 -0.517172,-0.76059 -1.049655,-0.76059 -0.532448,0 -0.969998,0.3302 -1.049761,0.76059 h 2.099416"
       style="fill:#3b5972;fill-opacity:1;fill-rule:nonzero;stroke:none;stroke-width:0.0352778" />
    <path
       id="path273"
       d="m 7.871768,17.033881 0.04039,-0.0402 h 5.919364 l 0.04022,0.0402 -0.04022,0.0402 H 7.912158 l -0.04039,-0.0402"
       style="fill:#254254;fill-opacity:1;fill-rule:nonzero;stroke:none;stroke-width:0.0352778" />
    <path
       id="path274"
       d="m 11.932699,17.336211 c -0.07966,-0.43039 -0.517172,-0.76059 -1.049655,-0.76059 -0.532448,0 -0.969998,0.3302 -1.049761,0.76059 0,0 0.786306,0.18203 1.053641,0.18168 0.265395,0 1.045775,-0.18168 1.045775,-0.18168"
       style="fill:#3b5972;fill-opacity:1;fill-rule:nonzero;stroke:none;stroke-width:0.0352778" />
    <path
       id="path275"
       d="m 11.500264,16.806331 c -0.174167,-0.115 -0.38541,-0.18591 -0.61722,-0.18591 -0.231775,0 -0.443019,0.0709 -0.61722,0.18591 0.139876,0.2406 0.362585,0.39864 0.61722,0.39864 0.254529,0 0.477379,-0.15804 0.61722,-0.39864"
       style="fill:#254254;fill-opacity:1;fill-rule:nonzero;stroke:none;stroke-width:0.0352778" />
    <path
       id="path276"
       d="m 8.900327,17.548231 h -0.07056 v -0.41346 h 0.07056 v 0.41346"
       style="fill:#254254;fill-opacity:1;fill-rule:nonzero;stroke:none;stroke-width:0.0352778" />
    <path
       id="path277"
       d="m 12.89363,17.608551 c 0,0.0448 0.03609,0.0808 0.08075,0.0808 0.04449,0 0.08061,-0.036 0.08061,-0.0808 v -0.22154 c 0,-0.0448 -0.03612,-0.0808 -0.08061,-0.0808 -0.04466,0 -0.08075,0.036 -0.08075,0.0808 v 0.22154"
       style="fill:#254254;fill-opacity:1;fill-rule:nonzero;stroke:none;stroke-width:0.0352778" />
    <path
       id="path278"
       d="m 12.863291,17.548231 h 0.0707 v -0.41346 h -0.0707 v 0.41346"
       style="fill:#254254;fill-opacity:1;fill-rule:nonzero;stroke:none;stroke-width:0.0352778" />
    <path
       id="path279"
       d="m 14.529496,17.041991 h -0.199954 v -0.41663 h 0.06668 l 0.133279,0.41663"
       style="fill:#3b5972;fill-opacity:1;fill-rule:nonzero;stroke:none;stroke-width:0.0352778" />
    <path
       id="path280"
       d="m 20.027856,17.041991 h 0.199954 v -0.41663 H 20.1611 l -0.133244,0.41663"
       style="fill:#3b5972;fill-opacity:1;fill-rule:nonzero;stroke:none;stroke-width:0.0352778" />
    <path
       id="path281"
       d="m 17.396486,17.608551 c 0,0.0448 -0.03609,0.0808 -0.08061,0.0808 -0.04452,0 -0.08061,-0.036 -0.08061,-0.0808 v -0.22154 c 0,-0.0448 0.03609,-0.0808 0.08061,-0.0808 0.04452,0 0.08061,0.036 0.08061,0.0808 v 0.22154"
       style="fill:#254254;fill-opacity:1;fill-rule:nonzero;stroke:none;stroke-width:0.0352778" />
    <path
       id="path282"
       d="m 15.298975,17.608551 c 0,0.0448 -0.03609,0.0808 -0.08061,0.0808 -0.04452,0 -0.08061,-0.036 -0.08061,-0.0808 v -0.22154 c 0,-0.0448 0.03609,-0.0808 0.08061,-0.0808 0.04452,0 0.08061,0.036 0.08061,0.0808 v 0.22154"
       style="fill:#254254;fill-opacity:1;fill-rule:nonzero;stroke:none;stroke-width:0.0352778" />
    <path
       id="path283"
       d="m 17.508811,16.852191 c -0.06724,-0.52563 -0.138642,-0.76094 -0.19678,-0.76094 -0.05817,0 -0.12954,0.23531 -0.196779,0.76094 h 0.393559"
       style="fill:#254254;fill-opacity:1;fill-rule:nonzero;stroke:none;stroke-width:0.0352778" />
    <path
       id="path284"
       d="m 14.30072,17.033881 0.04039,-0.0402 h 5.919364 l 0.04022,0.0402 -0.04022,0.0402 c 0,0 -2.223488,0.36301 -2.964568,0.36301 -0.738787,0 -2.954796,-0.36301 -2.954796,-0.36301 l -0.04039,-0.0402"
       style="fill:#254254;fill-opacity:1;fill-rule:nonzero;stroke:none;stroke-width:0.0352778" />
    <path
       id="path285"
       d="m 18.361792,17.336211 c -0.07976,-0.43039 -0.517313,-0.76059 -1.049761,-0.76059 -0.532483,0 -0.969998,0.3302 -1.049655,0.76059 h 2.099416"
       style="fill:#3b5972;fill-opacity:1;fill-rule:nonzero;stroke:none;stroke-width:0.0352778" />
    <path
       id="path286"
       d="m 14.30072,17.033881 0.04039,-0.0402 h 5.919364 l 0.04022,0.0402 -0.04022,0.0402 H 14.34111 l -0.04039,-0.0402"
       style="fill:#254254;fill-opacity:1;fill-rule:nonzero;stroke:none;stroke-width:0.0352778" />
    <path
       id="path287"
       d="m 18.361792,17.336211 c -0.07976,-0.43039 -0.517313,-0.76059 -1.049761,-0.76059 -0.532483,0 -0.969998,0.3302 -1.049655,0.76059 0,0 0.786165,0.18203 1.0535,0.18168 0.265395,0 1.045916,-0.18168 1.045916,-0.18168"
       style="fill:#3b5972;fill-opacity:1;fill-rule:nonzero;stroke:none;stroke-width:0.0352778" />
    <path
       id="path288"
       d="m 17.929251,16.806331 c -0.174202,-0.115 -0.385445,-0.18591 -0.61722,-0.18591 -0.23181,0 -0.443054,0.0709 -0.61722,0.18591 0.139841,0.2406 0.362691,0.39864 0.61722,0.39864 0.254635,0 0.477344,-0.15804 0.61722,-0.39864"
       style="fill:#254254;fill-opacity:1;fill-rule:nonzero;stroke:none;stroke-width:0.0352778" />
    <path
       id="path289"
       d="m 15.329314,17.548231 h -0.07056 v -0.41346 h 0.07056 v 0.41346"
       style="fill:#254254;fill-opacity:1;fill-rule:nonzero;stroke:none;stroke-width:0.0352778" />
    <path
       id="path290"
       d="m 19.322582,17.608551 c 0,0.0448 0.03609,0.0808 0.08075,0.0808 0.04452,0 0.08061,-0.036 0.08061,-0.0808 v -0.22154 c 0,-0.0448 -0.03609,-0.0808 -0.08061,-0.0808 -0.04466,0 -0.08075,0.036 -0.08075,0.0808 v 0.22154"
       style="fill:#254254;fill-opacity:1;fill-rule:nonzero;stroke:none;stroke-width:0.0352778" />
    <path
       id="path291"
       d="m 19.292385,17.548231 h 0.07055 v -0.41346 h -0.07055 v 0.41346"
       style="fill:#254254;fill-opacity:1;fill-rule:nonzero;stroke:none;stroke-width:0.0352778" />
  </g>
</svg>
