<?xml version="1.0" encoding="UTF-8" standalone="no"?>
<!-- Created with Inkscape (http://www.inkscape.org/) -->

<svg
   width="84.482124mm"
   height="16.43585mm"
   viewBox="0 0 84.482124 16.43585"
   version="1.1"
   id="svg1"
   inkscape:version="1.3.2 (091e20ef0f, 2023-11-25)"
   sodipodi:docname="submarine.svg"
   xmlns:inkscape="http://www.inkscape.org/namespaces/inkscape"
   xmlns:sodipodi="http://sodipodi.sourceforge.net/DTD/sodipodi-0.dtd"
   xmlns="http://www.w3.org/2000/svg"
   xmlns:svg="http://www.w3.org/2000/svg">
  <sodipodi:namedview
     id="namedview1"
     pagecolor="#ffffff"
     bordercolor="#000000"
     borderopacity="0.25"
     inkscape:showpageshadow="2"
     inkscape:pageopacity="0.0"
     inkscape:pagecheckerboard="0"
     inkscape:deskcolor="#d1d1d1"
     inkscape:document-units="mm"
     inkscape:zoom="0.55590807"
     inkscape:cx="159.19898"
     inkscape:cy="31.480025"
     inkscape:window-width="1900"
     inkscape:window-height="1028"
     inkscape:window-x="0"
     inkscape:window-y="0"
     inkscape:window-maximized="1"
     inkscape:current-layer="svg1" />
  <defs
     id="defs1" />
  <path
     id="path2"
     d="m 6.89489,16.10002 c -0.02275,0.0582 -0.103082,0.10515 -0.179564,0.10515 H 1.914938 c -0.0765,0 -0.138512,-0.047 -0.138512,-0.10515 v -3.95966 c 0,-0.0998 0.08228,-0.18161 0.183844,-0.18161 h 6.371343 c 0.101565,0 0.151871,0.0818 0.112713,0.18161 L 6.89489,16.10002"
     style="fill:#254254;fill-opacity:1;fill-rule:nonzero;stroke:none;stroke-width:0.0352778" />
  <path
     id="path3"
     d="m 10.13011,10.70568 c 0.146755,0.62413 -0.269558,1.15397 -0.936943,1.15397 H 5.568093 c -0.667385,0 -1.208405,0.82229 -1.208405,0.19816 V 5.80553 c 0,-0.38199 0.399097,-0.68118 0.891469,-0.68118 h 2.674232 c 0.492372,0 0.961708,0.29919 1.051702,0.68118 l 1.153019,4.90015"
     style="fill:#254254;fill-opacity:1;fill-rule:nonzero;stroke:none;stroke-width:0.0352778" />
  <path
     id="path4"
     d="M 5.028202,5.57029 H 7.70254 c 0.492231,0 0.961742,0.29877 1.051736,0.68118 l 1.152843,4.89973 c 0.03447,0.14609 0.03679,0.28649 0.01351,0.41674 0.202036,-0.21389 0.289101,-0.52352 0.20948,-0.86226 L 8.97709,5.80553 C 8.8871,5.42354 8.41776,5.12435 7.925388,5.12435 H 5.251156 C 4.761677,5.12435 4.364661,5.41994 4.36011,5.79918 4.523411,5.65806 4.761818,5.57029 5.028201,5.57029"
     style="fill:#008096;fill-opacity:1;fill-rule:nonzero;stroke:none;stroke-width:0.0352778" />
  <path
     id="path5"
     d="m 34.358746,2.99502 c 0,0.16397 -0.133,0.29696 -0.29704,0.29696 -0.16404,0 -0.297036,-0.13299 -0.297036,-0.29696 V 0.51855 c 0,-0.16415 0.132996,-0.29711 0.297036,-0.29711 0.16404,0 0.29704,0.13296 0.29704,0.29711 v 2.47647"
     style="fill:#29516a;fill-opacity:1;fill-rule:nonzero;stroke:none;stroke-width:0.0352778" />
  <path
     id="path6"
     d="m 35.856996,3.73765 c 0,0.16439 -0.133,0.29735 -0.29739,0.29735 -0.16404,0 -0.29704,-0.13296 -0.29704,-0.29735 V 1.26143 c 0,-0.16397 0.133,-0.29697 0.29704,-0.29697 0.16439,0 0.29739,0.133 0.29739,0.29697 v 2.47622"
     style="fill:#29516a;fill-opacity:1;fill-rule:nonzero;stroke:none;stroke-width:0.0352778" />
  <path
     id="path7"
     d="m 36.946376,3.49 c 0,0.16439 -0.133,0.29739 -0.29704,0.29739 -0.16404,0 -0.29704,-0.133 -0.29704,-0.29739 V 1.01382 c 0,-0.16401 0.133,-0.29697 0.29704,-0.29697 0.16404,0 0.29704,0.13296 0.29704,0.29697 V 3.49"
     style="fill:#29516a;fill-opacity:1;fill-rule:nonzero;stroke:none;stroke-width:0.0352778" />
  <path
     id="path8"
     d="m 41.915956,2.7044 c 0,0.0708 -0.0575,0.12827 -0.12841,0.12827 -0.0713,0 -0.12877,-0.0574 -0.12877,-0.12827 V 0.23975 c 0,-0.0708 0.0575,-0.12827 0.12877,-0.12827 0.0709,0 0.12841,0.0575 0.12841,0.12827 V 2.7044"
     style="fill:#29516a;fill-opacity:1;fill-rule:nonzero;stroke:none;stroke-width:0.0352778" />
  <path
     id="path9"
     d="m 42.658556,2.59292 c 0,0.0708 -0.0575,0.12827 -0.12842,0.12827 -0.0709,0 -0.12841,-0.0575 -0.12841,-0.12827 V 0.12827 c 0,-0.0708 0.0575,-0.12827 0.12841,-0.12827 0.0709,0 0.12842,0.0574 0.12842,0.12827 v 2.46465"
     style="fill:#29516a;fill-opacity:1;fill-rule:nonzero;stroke:none;stroke-width:0.0352778" />
  <path
     id="path10"
     d="m 44.276036,6.56125 c 0,0.51675 -0.43074,0.94008 -0.95955,0.94008 H 31.336324 c -0.458329,0 -0.767715,-0.39123 -0.694126,-0.86953 l 0.537281,-3.4932 c 0.06728,-0.43671 0.47117,-0.7983 0.904981,-0.81139 L 43.375746,1.98258 c 0.49601,-0.0152 0.90029,0.34851 0.90029,0.81703 v 3.76164"
     style="fill:#008096;fill-opacity:1;fill-rule:nonzero;stroke:none;stroke-width:0.0352778" />
  <path
     id="path11"
     d="m 84.482126,12.02997 c 0,2.43349 -1.97238,4.40588 -4.40584,4.40588 H 25.547875 c -2.433355,0 -20.941772,-1.97239 -20.941772,-4.40588 0,-2.43304 18.508417,-4.40545 20.941772,-4.40545 h 54.528411 c 2.43346,0 4.40584,1.97241 4.40584,4.40545"
     style="fill:#008096;fill-opacity:1;fill-rule:nonzero;stroke:none;stroke-width:0.0352778" />
  <path
     id="path12"
     d="M 27.191467,7.62452 C 28.23255,8.83074 30.792129,9.684 33.787248,9.684 h 5.492748 c 2.99509,0 5.55484,-0.85326 6.59589,-2.05948 H 27.191467"
     style="fill:#254254;fill-opacity:1;fill-rule:nonzero;stroke:none;stroke-width:0.0352778" />
  <path
     id="path13"
     d="M 6.435432,10.68173 C 5.694881,10.9594 5.141196,11.24892 4.847509,11.5478 h 79.607807 c -0.0325,-0.29888 -0.096,-0.5884 -0.18521,-0.86607 H 6.435432"
     style="fill:#f2736d;fill-opacity:1;fill-rule:nonzero;stroke:none;stroke-width:0.0352778" />
  <path
     id="path14"
     d="m 45.502296,7.62452 c -0.0825,-1.01173 -1.65594,-1.69965 -4.33317,-1.69965 h -5.44901 c -2.676559,0 -5.751935,0.6882 -8.048413,1.69965 h 17.830593"
     style="fill:#f2736d;fill-opacity:1;fill-rule:nonzero;stroke:none;stroke-width:0.0352778" />
  <path
     id="path15"
     d="m 5.160352,11.29454 c -0.355141,0.23907 -0.554249,0.48507 -0.554249,0.73543 0,2.43349 18.508417,4.40588 20.941772,4.40588 h 54.528411 c 2.43346,0 4.40584,-1.97239 4.40584,-4.40588 0,-0.25079 -0.0219,-0.49636 -0.0621,-0.73543 H 5.160352"
     style="fill:#29516a;fill-opacity:1;fill-rule:nonzero;stroke:none;stroke-width:0.0352778" />
  <path
     id="path16"
     d="m 44.148686,2.37159 c -0.15734,-0.24268 -0.4445,-0.39921 -0.77294,-0.38901 L 32.08446,2.32721 c -0.320534,0.01 -0.623852,0.21029 -0.787965,0.49004 L 44.148686,2.37159"
     style="fill:#f2736d;fill-opacity:1;fill-rule:nonzero;stroke:none;stroke-width:0.0352778" />
  <path
     id="path17"
     d="m 81.028076,9.33302 c 0,0.0819 -0.0667,0.14856 -0.14852,0.14856 h -6.979 c -0.0822,0 -0.14888,-0.0667 -0.14888,-0.14856 V 9.14961 c 0,-0.0823 0.0667,-0.14855 0.14888,-0.14855 h 6.979 c 0.0818,0 0.14852,0.0663 0.14852,0.14855 v 0.18341"
     style="fill:#254254;fill-opacity:1;fill-rule:nonzero;stroke:none;stroke-width:0.0352778" />
  <path
     id="path18"
     d="m 80.263956,9.49315 c 0,0.0823 -0.0667,0.14883 -0.14887,0.14883 h -2.6356 c -0.0822,0 -0.14852,-0.0666 -0.14852,-0.14883 V 8.98479 c 0,-0.0818 0.0663,-0.14855 0.14852,-0.14855 h 2.6356 c 0.0822,0 0.14887,0.0667 0.14887,0.14855 v 0.50836"
     style="fill:#e4355c;fill-opacity:1;fill-rule:nonzero;stroke:none;stroke-width:0.0352778" />
  <path
     id="path19"
     d="m 72.549766,10.49789 c 0,0.0554 0.0452,0.10058 0.10054,0.10058 h 1.00718 c 0.0557,0 0.1009,-0.0452 0.1009,-0.10058 v -0.25191 c 0,-0.0557 -0.0452,-0.10086 -0.1009,-0.10086 h -1.00718 c -0.0554,0 -0.10054,0.0452 -0.10054,0.10086 v 0.25191"
     style="fill:#254254;fill-opacity:1;fill-rule:nonzero;stroke:none;stroke-width:0.0352778" />
  <path
     id="path20"
     d="m 71.146416,10.49789 c 0,0.0554 0.0452,0.10058 0.10054,0.10058 h 1.00718 c 0.0557,0 0.1009,-0.0452 0.1009,-0.10058 v -0.25191 c 0,-0.0557 -0.0452,-0.10086 -0.1009,-0.10086 h -1.00718 c -0.0554,0 -0.10054,0.0452 -0.10054,0.10086 v 0.25191"
     style="fill:#254254;fill-opacity:1;fill-rule:nonzero;stroke:none;stroke-width:0.0352778" />
  <path
     id="path21"
     d="m 69.743066,10.49789 c 0,0.0554 0.0452,0.10058 0.10054,0.10058 h 1.00718 c 0.0557,0 0.1009,-0.0452 0.1009,-0.10058 v -0.25191 c 0,-0.0557 -0.0452,-0.10086 -0.1009,-0.10086 h -1.00718 c -0.0554,0 -0.10054,0.0452 -0.10054,0.10086 v 0.25191"
     style="fill:#254254;fill-opacity:1;fill-rule:nonzero;stroke:none;stroke-width:0.0352778" />
  <path
     id="path22"
     d="m 68.339716,10.49789 c 0,0.0554 0.0452,0.10058 0.10054,0.10058 h 1.00718 c 0.0557,0 0.1009,-0.0452 0.1009,-0.10058 v -0.25191 c 0,-0.0557 -0.0452,-0.10086 -0.1009,-0.10086 h -1.00718 c -0.0554,0 -0.10054,0.0452 -0.10054,0.10086 v 0.25191"
     style="fill:#254254;fill-opacity:1;fill-rule:nonzero;stroke:none;stroke-width:0.0352778" />
  <path
     id="path23"
     d="m 66.936366,10.49789 c 0,0.0554 0.0448,0.10058 0.10054,0.10058 h 1.00718 c 0.0557,0 0.10054,-0.0452 0.10054,-0.10058 v -0.25191 c 0,-0.0557 -0.0448,-0.10086 -0.10054,-0.10086 h -1.00718 c -0.0557,0 -0.10054,0.0452 -0.10054,0.10086 v 0.25191"
     style="fill:#254254;fill-opacity:1;fill-rule:nonzero;stroke:none;stroke-width:0.0352778" />
  <path
     id="path24"
     d="m 65.533016,10.49789 c 0,0.0554 0.0448,0.10058 0.10054,0.10058 h 1.00718 c 0.0557,0 0.10054,-0.0452 0.10054,-0.10058 v -0.25191 c 0,-0.0557 -0.0448,-0.10086 -0.10054,-0.10086 h -1.00718 c -0.0557,0 -0.10054,0.0452 -0.10054,0.10086 v 0.25191"
     style="fill:#254254;fill-opacity:1;fill-rule:nonzero;stroke:none;stroke-width:0.0352778" />
  <path
     id="path25"
     d="m 59.856466,10.49789 c 0,0.0554 0.0452,0.10058 0.1009,0.10058 h 1.00718 c 0.0554,0 0.10054,-0.0452 0.10054,-0.10058 v -0.25191 c 0,-0.0557 -0.0452,-0.10086 -0.10054,-0.10086 h -1.00718 c -0.0557,0 -0.1009,0.0452 -0.1009,0.10086 v 0.25191"
     style="fill:#254254;fill-opacity:1;fill-rule:nonzero;stroke:none;stroke-width:0.0352778" />
  <path
     id="path26"
     d="m 58.453116,10.49789 c 0,0.0554 0.0452,0.10058 0.1009,0.10058 h 1.00718 c 0.0554,0 0.10054,-0.0452 0.10054,-0.10058 v -0.25191 c 0,-0.0557 -0.0452,-0.10086 -0.10054,-0.10086 h -1.00718 c -0.0557,0 -0.1009,0.0452 -0.1009,0.10086 v 0.25191"
     style="fill:#254254;fill-opacity:1;fill-rule:nonzero;stroke:none;stroke-width:0.0352778" />
  <path
     id="path27"
     d="m 57.049766,10.49789 c 0,0.0554 0.0452,0.10058 0.1009,0.10058 h 1.00718 c 0.0554,0 0.10054,-0.0452 0.10054,-0.10058 v -0.25191 c 0,-0.0557 -0.0452,-0.10086 -0.10054,-0.10086 h -1.00718 c -0.0557,0 -0.1009,0.0452 -0.1009,0.10086 v 0.25191"
     style="fill:#254254;fill-opacity:1;fill-rule:nonzero;stroke:none;stroke-width:0.0352778" />
  <path
     id="path28"
     d="m 55.646416,10.49789 c 0,0.0554 0.0452,0.10058 0.1009,0.10058 h 1.00718 c 0.0554,0 0.10054,-0.0452 0.10054,-0.10058 v -0.25191 c 0,-0.0557 -0.0452,-0.10086 -0.10054,-0.10086 h -1.00718 c -0.0557,0 -0.1009,0.0452 -0.1009,0.10086 v 0.25191"
     style="fill:#254254;fill-opacity:1;fill-rule:nonzero;stroke:none;stroke-width:0.0352778" />
  <path
     id="path29"
     d="m 54.243066,10.49789 c 0,0.0554 0.0452,0.10058 0.1009,0.10058 h 1.00718 c 0.0554,0 0.10054,-0.0452 0.10054,-0.10058 v -0.25191 c 0,-0.0557 -0.0452,-0.10086 -0.10054,-0.10086 h -1.00718 c -0.0557,0 -0.1009,0.0452 -0.1009,0.10086 v 0.25191"
     style="fill:#254254;fill-opacity:1;fill-rule:nonzero;stroke:none;stroke-width:0.0352778" />
  <path
     id="path30"
     d="m 52.839716,10.49789 c 0,0.0554 0.0452,0.10058 0.1009,0.10058 h 1.00682 c 0.0557,0 0.1009,-0.0452 0.1009,-0.10058 v -0.25191 c 0,-0.0557 -0.0452,-0.10086 -0.1009,-0.10086 h -1.00682 c -0.0557,0 -0.1009,0.0452 -0.1009,0.10086 v 0.25191"
     style="fill:#254254;fill-opacity:1;fill-rule:nonzero;stroke:none;stroke-width:0.0352778" />
  <path
     id="path31"
     d="m 47.163526,10.49789 c 0,0.0554 0.0452,0.10058 0.10054,0.10058 h 1.00718 c 0.0557,0 0.10089,-0.0452 0.10089,-0.10058 v -0.25191 c 0,-0.0557 -0.0452,-0.10086 -0.10089,-0.10086 h -1.00718 c -0.0554,0 -0.10054,0.0452 -0.10054,0.10086 v 0.25191"
     style="fill:#254254;fill-opacity:1;fill-rule:nonzero;stroke:none;stroke-width:0.0352778" />
  <path
     id="path32"
     d="m 45.760176,10.49789 c 0,0.0554 0.0448,0.10058 0.10054,0.10058 h 1.00718 c 0.0557,0 0.10089,-0.0452 0.10089,-0.10058 v -0.25191 c 0,-0.0557 -0.0452,-0.10086 -0.10089,-0.10086 h -1.00718 c -0.0557,0 -0.10054,0.0452 -0.10054,0.10086 v 0.25191"
     style="fill:#254254;fill-opacity:1;fill-rule:nonzero;stroke:none;stroke-width:0.0352778" />
  <path
     id="path33"
     d="m 44.356826,10.49789 c 0,0.0554 0.0451,0.10058 0.10054,0.10058 h 1.00718 c 0.0557,0 0.10089,-0.0452 0.10089,-0.10058 v -0.25191 c 0,-0.0557 -0.0451,-0.10086 -0.10089,-0.10086 h -1.00718 c -0.0554,0 -0.10054,0.0452 -0.10054,0.10086 v 0.25191"
     style="fill:#254254;fill-opacity:1;fill-rule:nonzero;stroke:none;stroke-width:0.0352778" />
  <path
     id="path34"
     d="m 42.953476,10.49789 c 0,0.0554 0.0448,0.10058 0.10054,0.10058 h 1.00718 c 0.0557,0 0.10054,-0.0452 0.10054,-0.10058 v -0.25191 c 0,-0.0557 -0.0448,-0.10086 -0.10054,-0.10086 h -1.00718 c -0.0557,0 -0.10054,0.0452 -0.10054,0.10086 v 0.25191"
     style="fill:#254254;fill-opacity:1;fill-rule:nonzero;stroke:none;stroke-width:0.0352778" />
  <path
     id="path35"
     d="m 41.550126,10.49789 c 0,0.0554 0.0448,0.10058 0.10054,0.10058 h 1.00718 c 0.0557,0 0.10054,-0.0452 0.10054,-0.10058 v -0.25191 c 0,-0.0557 -0.0448,-0.10086 -0.10054,-0.10086 h -1.00718 c -0.0557,0 -0.10054,0.0452 -0.10054,0.10086 v 0.25191"
     style="fill:#254254;fill-opacity:1;fill-rule:nonzero;stroke:none;stroke-width:0.0352778" />
  <path
     id="path36"
     d="m 40.146776,10.49789 c 0,0.0554 0.0448,0.10058 0.10054,0.10058 h 1.00718 c 0.0557,0 0.10054,-0.0452 0.10054,-0.10058 v -0.25191 c 0,-0.0557 -0.0448,-0.10086 -0.10054,-0.10086 h -1.00718 c -0.0557,0 -0.10054,0.0452 -0.10054,0.10086 v 0.25191"
     style="fill:#254254;fill-opacity:1;fill-rule:nonzero;stroke:none;stroke-width:0.0352778" />
  <path
     id="path37"
     d="m 58.832706,11.76045 c 0,0.0558 0.0452,0.10086 0.1009,0.10086 h 1.00682 c 0.0557,0 0.1009,-0.0451 0.1009,-0.10086 v -0.25149 c 0,-0.0557 -0.0452,-0.1009 -0.1009,-0.1009 h -1.00682 c -0.0557,0 -0.1009,0.0452 -0.1009,0.1009 v 0.25149"
     style="fill:#162d38;fill-opacity:1;fill-rule:nonzero;stroke:none;stroke-width:0.0352778" />
  <path
     id="path38"
     d="m 57.429356,11.76045 c 0,0.0558 0.0452,0.10086 0.10054,0.10086 h 1.00718 c 0.0557,0 0.1009,-0.0451 0.1009,-0.10086 v -0.25149 c 0,-0.0557 -0.0452,-0.1009 -0.1009,-0.1009 h -1.00718 c -0.0554,0 -0.10054,0.0452 -0.10054,0.1009 v 0.25149"
     style="fill:#162d38;fill-opacity:1;fill-rule:nonzero;stroke:none;stroke-width:0.0352778" />
  <path
     id="path39"
     d="m 56.026006,11.76045 c 0,0.0558 0.0452,0.10086 0.10054,0.10086 h 1.00718 c 0.0557,0 0.1009,-0.0451 0.1009,-0.10086 v -0.25149 c 0,-0.0557 -0.0452,-0.1009 -0.1009,-0.1009 h -1.00718 c -0.0554,0 -0.10054,0.0452 -0.10054,0.1009 v 0.25149"
     style="fill:#162d38;fill-opacity:1;fill-rule:nonzero;stroke:none;stroke-width:0.0352778" />
  <path
     id="path40"
     d="m 54.622656,11.76045 c 0,0.0558 0.0452,0.10086 0.10054,0.10086 h 1.00718 c 0.0557,0 0.1009,-0.0451 0.1009,-0.10086 v -0.25149 c 0,-0.0557 -0.0452,-0.1009 -0.1009,-0.1009 h -1.00718 c -0.0554,0 -0.10054,0.0452 -0.10054,0.1009 v 0.25149"
     style="fill:#162d38;fill-opacity:1;fill-rule:nonzero;stroke:none;stroke-width:0.0352778" />
  <path
     id="path41"
     d="m 53.219306,11.76045 c 0,0.0558 0.0452,0.10086 0.10054,0.10086 h 1.00718 c 0.0557,0 0.1009,-0.0451 0.1009,-0.10086 v -0.25149 c 0,-0.0557 -0.0452,-0.1009 -0.1009,-0.1009 h -1.00718 c -0.0554,0 -0.10054,0.0452 -0.10054,0.1009 v 0.25149"
     style="fill:#162d38;fill-opacity:1;fill-rule:nonzero;stroke:none;stroke-width:0.0352778" />
  <path
     id="path42"
     d="m 51.815956,11.76045 c 0,0.0558 0.0452,0.10086 0.10054,0.10086 h 1.00718 c 0.0557,0 0.1009,-0.0451 0.1009,-0.10086 v -0.25149 c 0,-0.0557 -0.0452,-0.1009 -0.1009,-0.1009 h -1.00718 c -0.0554,0 -0.10054,0.0452 -0.10054,0.1009 v 0.25149"
     style="fill:#162d38;fill-opacity:1;fill-rule:nonzero;stroke:none;stroke-width:0.0352778" />
  <path
     id="path43"
     d="m 48.333686,11.76045 c 0,0.0558 0.0452,0.10086 0.10054,0.10086 h 1.00718 c 0.0557,0 0.1009,-0.0451 0.1009,-0.10086 v -0.25149 c 0,-0.0557 -0.0452,-0.1009 -0.1009,-0.1009 h -1.00718 c -0.0554,0 -0.10054,0.0452 -0.10054,0.1009 v 0.25149"
     style="fill:#162d38;fill-opacity:1;fill-rule:nonzero;stroke:none;stroke-width:0.0352778" />
  <path
     id="path44"
     d="m 46.930336,11.76045 c 0,0.0558 0.0452,0.10086 0.10054,0.10086 h 1.00718 c 0.0557,0 0.1009,-0.0451 0.1009,-0.10086 v -0.25149 c 0,-0.0557 -0.0452,-0.1009 -0.1009,-0.1009 h -1.00718 c -0.0554,0 -0.10054,0.0452 -0.10054,0.1009 v 0.25149"
     style="fill:#162d38;fill-opacity:1;fill-rule:nonzero;stroke:none;stroke-width:0.0352778" />
  <path
     id="path45"
     d="m 45.526986,11.76045 c 0,0.0558 0.0452,0.10086 0.10054,0.10086 h 1.00718 c 0.0557,0 0.1009,-0.0451 0.1009,-0.10086 v -0.25149 c 0,-0.0557 -0.0452,-0.1009 -0.1009,-0.1009 h -1.00718 c -0.0554,0 -0.10054,0.0452 -0.10054,0.1009 v 0.25149"
     style="fill:#162d38;fill-opacity:1;fill-rule:nonzero;stroke:none;stroke-width:0.0352778" />
  <path
     id="path46"
     d="m 44.123636,11.76045 c 0,0.0558 0.0452,0.10086 0.10054,0.10086 h 1.00718 c 0.0557,0 0.1009,-0.0451 0.1009,-0.10086 v -0.25149 c 0,-0.0557 -0.0452,-0.1009 -0.1009,-0.1009 h -1.00718 c -0.0554,0 -0.10054,0.0452 -0.10054,0.1009 v 0.25149"
     style="fill:#162d38;fill-opacity:1;fill-rule:nonzero;stroke:none;stroke-width:0.0352778" />
  <path
     id="path47"
     d="m 42.720286,11.76045 c 0,0.0558 0.0452,0.10086 0.10054,0.10086 h 1.00718 c 0.0557,0 0.1009,-0.0451 0.1009,-0.10086 v -0.25149 c 0,-0.0557 -0.0452,-0.1009 -0.1009,-0.1009 h -1.00718 c -0.0554,0 -0.10054,0.0452 -0.10054,0.1009 v 0.25149"
     style="fill:#162d38;fill-opacity:1;fill-rule:nonzero;stroke:none;stroke-width:0.0352778" />
  <path
     id="path48"
     d="m 41.316936,11.76045 c 0,0.0558 0.0452,0.10086 0.10054,0.10086 h 1.00718 c 0.0557,0 0.1009,-0.0451 0.1009,-0.10086 v -0.25149 c 0,-0.0557 -0.0452,-0.1009 -0.1009,-0.1009 h -1.00718 c -0.0554,0 -0.10054,0.0452 -0.10054,0.1009 v 0.25149"
     style="fill:#162d38;fill-opacity:1;fill-rule:nonzero;stroke:none;stroke-width:0.0352778" />
  <path
     id="path49"
     d="m 37.834666,11.76045 c 0,0.0558 0.0452,0.10086 0.10054,0.10086 h 1.00718 c 0.0557,0 0.10055,-0.0451 0.10055,-0.10086 v -0.25149 c 0,-0.0557 -0.0448,-0.1009 -0.10055,-0.1009 h -1.00718 c -0.0554,0 -0.10054,0.0452 -0.10054,0.1009 v 0.25149"
     style="fill:#162d38;fill-opacity:1;fill-rule:nonzero;stroke:none;stroke-width:0.0352778" />
  <path
     id="path50"
     d="m 36.431316,11.76045 c 0,0.0558 0.0448,0.10086 0.10054,0.10086 h 1.00718 c 0.0557,0 0.1009,-0.0451 0.1009,-0.10086 v -0.25149 c 0,-0.0557 -0.0452,-0.1009 -0.1009,-0.1009 h -1.00718 c -0.0557,0 -0.10054,0.0452 -0.10054,0.1009 v 0.25149"
     style="fill:#162d38;fill-opacity:1;fill-rule:nonzero;stroke:none;stroke-width:0.0352778" />
  <path
     id="path51"
     d="m 35.027966,11.76045 c 0,0.0558 0.0452,0.10086 0.10054,0.10086 h 1.00718 c 0.0557,0 0.10055,-0.0451 0.10055,-0.10086 v -0.25149 c 0,-0.0557 -0.0448,-0.1009 -0.10055,-0.1009 h -1.00718 c -0.0554,0 -0.10054,0.0452 -0.10054,0.1009 v 0.25149"
     style="fill:#162d38;fill-opacity:1;fill-rule:nonzero;stroke:none;stroke-width:0.0352778" />
  <path
     id="path52"
     d="m 33.624617,11.76045 c 0,0.0558 0.0448,0.10086 0.100542,0.10086 h 1.007177 c 0.0557,0 0.10055,-0.0451 0.10055,-0.10086 v -0.25149 c 0,-0.0557 -0.0448,-0.1009 -0.10055,-0.1009 h -1.007177 c -0.05574,0 -0.100542,0.0452 -0.100542,0.1009 v 0.25149"
     style="fill:#162d38;fill-opacity:1;fill-rule:nonzero;stroke:none;stroke-width:0.0352778" />
  <path
     id="path53"
     d="m 32.221161,11.76045 c 0,0.0558 0.04505,0.10086 0.100718,0.10086 h 1.007075 c 0.05567,0 0.100753,-0.0451 0.100753,-0.10086 v -0.25149 c 0,-0.0557 -0.04509,-0.1009 -0.100753,-0.1009 h -1.007075 c -0.05567,0 -0.100718,0.0452 -0.100718,0.1009 v 0.25149"
     style="fill:#162d38;fill-opacity:1;fill-rule:nonzero;stroke:none;stroke-width:0.0352778" />
  <path
     id="path54"
     d="m 30.817741,11.76045 c 0,0.0558 0.04509,0.10086 0.100753,0.10086 h 1.007075 c 0.05567,0 0.100718,-0.0451 0.100718,-0.10086 v -0.25149 c 0,-0.0557 -0.04505,-0.1009 -0.100718,-0.1009 h -1.007075 c -0.05567,0 -0.100753,0.0452 -0.100753,0.1009 v 0.25149"
     style="fill:#162d38;fill-opacity:1;fill-rule:nonzero;stroke:none;stroke-width:0.0352778" />
  <path
     id="path55"
     d="M 80.868616,14.43342 H 21.224125 c -1.672943,0 -10.292716,-0.80284 -16.465481,-2.02199 1.760291,2.25447 18.484463,4.02442 20.789231,4.02442 h 54.528411 c 2.09655,0 3.84951,-1.46444 4.29506,-3.4258 -0.87841,0.87588 -2.12231,1.42337 -3.50273,1.42337"
     style="fill:#254254;fill-opacity:1;fill-rule:nonzero;stroke:none;stroke-width:0.0352778" />
  <path
     id="path56"
     d="m 27.847387,11.76045 c 0,0.0558 0.04509,0.10086 0.100753,0.10086 h 1.007075 c 0.05567,0 0.100718,-0.0451 0.100718,-0.10086 v -0.25149 c 0,-0.0557 -0.04505,-0.1009 -0.100718,-0.1009 H 27.94814 c -0.05567,0 -0.100753,0.0452 -0.100753,0.1009 v 0.25149"
     style="fill:#162d38;fill-opacity:1;fill-rule:nonzero;stroke:none;stroke-width:0.0352778" />
  <path
     id="path57"
     d="m 26.444001,11.76045 c 0,0.0558 0.04505,0.10086 0.100718,0.10086 h 1.007216 c 0.05553,0 0.100754,-0.0451 0.100754,-0.10086 v -0.25149 c 0,-0.0557 -0.04523,-0.1009 -0.100754,-0.1009 h -1.007216 c -0.05567,0 -0.100718,0.0452 -0.100718,0.1009 v 0.25149"
     style="fill:#162d38;fill-opacity:1;fill-rule:nonzero;stroke:none;stroke-width:0.0352778" />
  <path
     id="path58"
     d="m 25.040757,11.76045 c 0,0.0558 0.04505,0.10086 0.100577,0.10086 h 1.007216 c 0.05553,0 0.100718,-0.0451 0.100718,-0.10086 v -0.25149 c 0,-0.0557 -0.04519,-0.1009 -0.100718,-0.1009 h -1.007216 c -0.05553,0 -0.100577,0.0452 -0.100577,0.1009 v 0.25149"
     style="fill:#162d38;fill-opacity:1;fill-rule:nonzero;stroke:none;stroke-width:0.0352778" />
  <path
     id="path59"
     d="m 23.637336,11.76045 c 0,0.0558 0.04509,0.10086 0.100754,0.10086 h 1.007075 c 0.05567,0 0.100718,-0.0451 0.100718,-0.10086 v -0.25149 c 0,-0.0557 -0.04505,-0.1009 -0.100718,-0.1009 H 23.73809 c -0.05567,0 -0.100754,0.0452 -0.100754,0.1009 v 0.25149"
     style="fill:#162d38;fill-opacity:1;fill-rule:nonzero;stroke:none;stroke-width:0.0352778" />
  <path
     id="path60"
     d="m 22.233951,11.76045 c 0,0.0558 0.04509,0.10086 0.100753,0.10086 h 1.007075 c 0.05567,0 0.100718,-0.0451 0.100718,-0.10086 v -0.25149 c 0,-0.0557 -0.04505,-0.1009 -0.100718,-0.1009 h -1.007075 c -0.05567,0 -0.100753,0.0452 -0.100753,0.1009 v 0.25149"
     style="fill:#162d38;fill-opacity:1;fill-rule:nonzero;stroke:none;stroke-width:0.0352778" />
  <path
     id="path61"
     d="m 20.830566,11.76045 c 0,0.0558 0.04519,0.10086 0.100718,0.10086 H 21.9385 c 0.05553,0 0.100753,-0.0451 0.100753,-0.10086 v -0.25149 c 0,-0.0557 -0.04523,-0.1009 -0.100753,-0.1009 h -1.007216 c -0.05553,0 -0.100718,0.0452 -0.100718,0.1009 v 0.25149"
     style="fill:#162d38;fill-opacity:1;fill-rule:nonzero;stroke:none;stroke-width:0.0352778" />
  <path
     id="path62"
     d="m 17.546416,11.76045 c 0,0.0558 0.04509,0.10086 0.100753,0.10086 h 1.007075 c 0.05567,0 0.100718,-0.0451 0.100718,-0.10086 v -0.25149 c 0,-0.0557 -0.04505,-0.1009 -0.100718,-0.1009 h -1.007075 c -0.05567,0 -0.100753,0.0452 -0.100753,0.1009 v 0.25149"
     style="fill:#162d38;fill-opacity:1;fill-rule:nonzero;stroke:none;stroke-width:0.0352778" />
  <path
     id="path63"
     d="m 16.143031,11.76045 c 0,0.0558 0.04505,0.10086 0.100718,0.10086 h 1.007075 c 0.05567,0 0.100753,-0.0451 0.100753,-0.10086 v -0.25149 c 0,-0.0557 -0.04509,-0.1009 -0.100753,-0.1009 h -1.007075 c -0.05567,0 -0.100718,0.0452 -0.100718,0.1009 v 0.25149"
     style="fill:#162d38;fill-opacity:1;fill-rule:nonzero;stroke:none;stroke-width:0.0352778" />
  <path
     id="path64"
     d="m 14.739786,11.76045 c 0,0.0558 0.04505,0.10086 0.100577,0.10086 h 1.007216 c 0.05553,0 0.100718,-0.0451 0.100718,-0.10086 v -0.25149 c 0,-0.0557 -0.04519,-0.1009 -0.100718,-0.1009 h -1.007216 c -0.05553,0 -0.100577,0.0452 -0.100577,0.1009 v 0.25149"
     style="fill:#162d38;fill-opacity:1;fill-rule:nonzero;stroke:none;stroke-width:0.0352778" />
  <path
     id="path65"
     d="m 13.336366,11.76045 c 0,0.0558 0.04509,0.10086 0.100753,0.10086 h 1.007075 c 0.05567,0 0.100718,-0.0451 0.100718,-0.10086 v -0.25149 c 0,-0.0557 -0.04505,-0.1009 -0.100718,-0.1009 h -1.007075 c -0.05567,0 -0.100753,0.0452 -0.100753,0.1009 v 0.25149"
     style="fill:#162d38;fill-opacity:1;fill-rule:nonzero;stroke:none;stroke-width:0.0352778" />
  <path
     id="path66"
     d="m 11.93298,11.76045 c 0,0.0558 0.04505,0.10086 0.100754,0.10086 h 1.007039 c 0.0557,0 0.100754,-0.0451 0.100754,-0.10086 v -0.25149 c 0,-0.0557 -0.04505,-0.1009 -0.100754,-0.1009 h -1.007039 c -0.0557,0 -0.100754,0.0452 -0.100754,0.1009 v 0.25149"
     style="fill:#162d38;fill-opacity:1;fill-rule:nonzero;stroke:none;stroke-width:0.0352778" />
  <path
     id="path67"
     d="m 10.529595,11.76045 c 0,0.0558 0.04505,0.10086 0.100718,0.10086 h 1.007075 c 0.05567,0 0.100753,-0.0451 0.100753,-0.10086 v -0.25149 c 0,-0.0557 -0.04509,-0.1009 -0.100753,-0.1009 h -1.007075 c -0.05567,0 -0.100718,0.0452 -0.100718,0.1009 v 0.25149"
     style="fill:#162d38;fill-opacity:1;fill-rule:nonzero;stroke:none;stroke-width:0.0352778" />
  <path
     id="path68"
     d="M 8.709614,11.53541 H 2.477724 C 2.161988,11.53541 0,11.7916 0,12.1073 c 0,0.3157 2.161988,0.57189 2.477724,0.57189 h 6.23189 v -1.14378"
     style="fill:#008096;fill-opacity:1;fill-rule:nonzero;stroke:none;stroke-width:0.0352778" />
  <path
     id="path69"
     d="m 27.236517,7.99564 c 0,0.0821 -0.06657,0.14856 -0.148555,0.14856 h -1.892194 c -0.08213,0 -0.148696,-0.0664 -0.148696,-0.14856 v -0.0758 c 0,-0.0823 0.06657,-0.14855 0.148696,-0.14855 h 1.892194 c 0.08199,0 0.148555,0.0663 0.148555,0.14855 v 0.0758"
     style="fill:#e4355c;fill-opacity:1;fill-rule:nonzero;stroke:none;stroke-width:0.0352778" />
  <path
     id="path70"
     d="m 24.922365,8.00806 c 0,0.0821 -0.06657,0.1488 -0.148555,0.1488 h -0.54804 c -0.08199,0 -0.148555,-0.0667 -0.148555,-0.1488 v -0.076 c 0,-0.0821 0.06657,-0.14856 0.148555,-0.14856 h 0.54804 c 0.08199,0 0.148555,0.0664 0.148555,0.14856 v 0.076"
     style="fill:#e4355c;fill-opacity:1;fill-rule:nonzero;stroke:none;stroke-width:0.0352778" />
  <path
     id="path71"
     d="m 49.225156,7.99564 c 0,0.0821 -0.0663,0.14856 -0.14852,0.14856 h -1.8923 c -0.0818,0 -0.14852,-0.0664 -0.14852,-0.14856 v -0.0758 c 0,-0.0823 0.0667,-0.14855 0.14852,-0.14855 h 1.8923 c 0.0822,0 0.14852,0.0663 0.14852,0.14855 v 0.0758"
     style="fill:#e4355c;fill-opacity:1;fill-rule:nonzero;stroke:none;stroke-width:0.0352778" />
  <path
     id="path72"
     d="m 46.910936,8.00806 c 0,0.0821 -0.0663,0.1488 -0.14852,0.1488 h -0.54786 c -0.0822,0 -0.14852,-0.0667 -0.14852,-0.1488 v -0.076 c 0,-0.0821 0.0663,-0.14856 0.14852,-0.14856 h 0.54786 c 0.0822,0 0.14852,0.0664 0.14852,0.14856 v 0.076"
     style="fill:#e4355c;fill-opacity:1;fill-rule:nonzero;stroke:none;stroke-width:0.0352778" />
  <path
     id="path73"
     d="m 52.642516,7.99564 c 0,0.0821 -0.0667,0.14856 -0.14852,0.14856 h -1.8923 c -0.0822,0 -0.14852,-0.0664 -0.14852,-0.14856 v -0.0758 c 0,-0.0823 0.0663,-0.14855 0.14852,-0.14855 h 1.8923 c 0.0818,0 0.14852,0.0663 0.14852,0.14855 v 0.0758"
     style="fill:#e4355c;fill-opacity:1;fill-rule:nonzero;stroke:none;stroke-width:0.0352778" />
  <path
     id="path74"
     d="m 50.328296,8.00806 c 0,0.0821 -0.0667,0.1488 -0.14852,0.1488 h -0.54822 c -0.0818,0 -0.14852,-0.0667 -0.14852,-0.1488 v -0.076 c 0,-0.0821 0.0667,-0.14856 0.14852,-0.14856 h 0.54822 c 0.0818,0 0.14852,0.0664 0.14852,0.14856 v 0.076"
     style="fill:#e4355c;fill-opacity:1;fill-rule:nonzero;stroke:none;stroke-width:0.0352778" />
  <path
     id="path75"
     d="m 56.059526,7.99564 c 0,0.0821 -0.0663,0.14856 -0.14852,0.14856 h -1.8923 c -0.0819,0 -0.14852,-0.0664 -0.14852,-0.14856 v -0.0758 c 0,-0.0823 0.0667,-0.14855 0.14852,-0.14855 h 1.8923 c 0.0822,0 0.14852,0.0663 0.14852,0.14855 v 0.0758"
     style="fill:#e4355c;fill-opacity:1;fill-rule:nonzero;stroke:none;stroke-width:0.0352778" />
  <path
     id="path76"
     d="m 53.745656,8.00806 c 0,0.0821 -0.0667,0.1488 -0.14888,0.1488 h -0.54786 c -0.0822,0 -0.14852,-0.0667 -0.14852,-0.1488 v -0.076 c 0,-0.0821 0.0663,-0.14856 0.14852,-0.14856 h 0.54786 c 0.0822,0 0.14888,0.0664 0.14888,0.14856 v 0.076"
     style="fill:#e4355c;fill-opacity:1;fill-rule:nonzero;stroke:none;stroke-width:0.0352778" />
  <path
     id="path77"
     d="m 59.476876,7.99564 c 0,0.0821 -0.0667,0.14856 -0.14852,0.14856 h -1.8923 c -0.0822,0 -0.14852,-0.0664 -0.14852,-0.14856 v -0.0758 c 0,-0.0823 0.0663,-0.14855 0.14852,-0.14855 h 1.8923 c 0.0819,0 0.14852,0.0663 0.14852,0.14855 v 0.0758"
     style="fill:#e4355c;fill-opacity:1;fill-rule:nonzero;stroke:none;stroke-width:0.0352778" />
  <path
     id="path78"
     d="m 57.162656,8.00806 c 0,0.0821 -0.0663,0.1488 -0.14852,0.1488 h -0.54821 c -0.0819,0 -0.14852,-0.0667 -0.14852,-0.1488 v -0.076 c 0,-0.0821 0.0667,-0.14856 0.14852,-0.14856 h 0.54821 c 0.0822,0 0.14852,0.0664 0.14852,0.14856 v 0.076"
     style="fill:#e4355c;fill-opacity:1;fill-rule:nonzero;stroke:none;stroke-width:0.0352778" />
</svg>
