<?xml version="1.0" encoding="UTF-8" standalone="no"?>
<!-- Created with Inkscape (http://www.inkscape.org/) -->

<svg
   width="52.279022mm"
   height="20.402208mm"
   viewBox="0 0 52.279022 20.402208"
   version="1.1"
   id="svg1"
   inkscape:version="1.3.2 (091e20ef0f, 2023-11-25)"
   sodipodi:docname="patrol.svg"
   xmlns:inkscape="http://www.inkscape.org/namespaces/inkscape"
   xmlns:sodipodi="http://sodipodi.sourceforge.net/DTD/sodipodi-0.dtd"
   xmlns="http://www.w3.org/2000/svg"
   xmlns:svg="http://www.w3.org/2000/svg">
  <sodipodi:namedview
     id="namedview1"
     pagecolor="#ffffff"
     bordercolor="#000000"
     borderopacity="0.25"
     inkscape:showpageshadow="2"
     inkscape:pageopacity="0.0"
     inkscape:pagecheckerboard="0"
     inkscape:deskcolor="#d1d1d1"
     inkscape:document-units="mm"
     inkscape:zoom="0.56066468"
     inkscape:cx="-11.593382"
     inkscape:cy="213.13987"
     inkscape:window-width="1900"
     inkscape:window-height="1028"
     inkscape:window-x="0"
     inkscape:window-y="0"
     inkscape:window-maximized="1"
     inkscape:current-layer="layer1" />
  <defs
     id="defs1" />
  <g
     inkscape:label="Layer 1"
     inkscape:groupmode="layer"
     id="layer1"
     transform="translate(-107.95,-92.074991)">
    <path
       id="path658"
       d="m 144.44063,106.73714 h -0.0981 v -5.11704 h 0.0981 v 5.11704"
       style="fill:#29516a;fill-opacity:1;fill-rule:nonzero;stroke:none;stroke-width:0.0352778" />
    <path
       id="path659"
       d="m 155.65861,104.71996 h -0.0984 v -1.67287 h 0.0984 v 1.67287"
       style="fill:#29516a;fill-opacity:1;fill-rule:nonzero;stroke:none;stroke-width:0.0352778" />
    <path
       id="path660"
       d="m 155.06841,105.40858 h -0.0984 v -1.67287 h 0.0984 v 1.67287"
       style="fill:#29516a;fill-opacity:1;fill-rule:nonzero;stroke:none;stroke-width:0.0352778" />
    <path
       id="path661"
       d="m 149.16397,104.52311 h -0.0984 v -1.67287 h 0.0984 v 1.67287"
       style="fill:#29516a;fill-opacity:1;fill-rule:nonzero;stroke:none;stroke-width:0.0352778" />
    <path
       id="path662"
       d="m 146.9009,104.81838 h -0.0984 v -1.67287 h 0.0984 v 1.67287"
       style="fill:#29516a;fill-opacity:1;fill-rule:nonzero;stroke:none;stroke-width:0.0352778" />
    <path
       id="path663"
       d="m 145.52331,104.42468 h -0.0984 v -1.67287 h 0.0984 v 1.67287"
       style="fill:#29516a;fill-opacity:1;fill-rule:nonzero;stroke:none;stroke-width:0.0352778" />
    <path
       id="path664"
       d="m 117.77377,104.42468 h -0.0984 v -1.67287 h 0.0984 v 1.67287"
       style="fill:#29516a;fill-opacity:1;fill-rule:nonzero;stroke:none;stroke-width:0.0352778" />
    <path
       id="path665"
       d="m 116.6913,104.32626 h -0.0984 v -1.67287 h 0.0984 v 1.67287"
       style="fill:#29516a;fill-opacity:1;fill-rule:nonzero;stroke:none;stroke-width:0.0352778" />
    <path
       id="path666"
       d="m 118.01972,105.16269 h 0.59052 v -2.26342 h -0.59052 v 2.26342"
       style="fill:#29516a;fill-opacity:1;fill-rule:nonzero;stroke:none;stroke-width:0.0352778" />
    <path
       id="path667"
       d="m 148.03261,105.45797 h 0.5902 v -2.26342 h -0.5902 v 2.26342"
       style="fill:#29516a;fill-opacity:1;fill-rule:nonzero;stroke:none;stroke-width:0.0352778" />
    <path
       id="path668"
       d="m 151.57486,105.99913 h 2.76189 v -2.26342 h -2.76189 v 2.26342"
       style="fill:#29516a;fill-opacity:1;fill-rule:nonzero;stroke:none;stroke-width:0.0352778" />
    <path
       id="path669"
       d="m 156.1966,105.31721 h 1.18745 v -1.29328 h -1.18745 v 1.29328"
       style="fill:#29516a;fill-opacity:1;fill-rule:nonzero;stroke:none;stroke-width:0.0352778" />
    <path
       id="path670"
       d="m 126.31843,92.895199 c 0,0.452967 0.36711,0.819856 0.81993,0.819856 0.45297,0 0.82007,-0.366889 0.82007,-0.819856 0,-0.452966 -0.3671,-0.820208 -0.82007,-0.820208 -0.45282,0 -0.81993,0.367242 -0.81993,0.820208"
       style="fill:#6b99b5;fill-opacity:1;fill-rule:nonzero;stroke:none;stroke-width:0.0352778" />
    <path
       id="path671"
       d="m 123.04818,100.79142 c -0.0422,0.26988 0.15022,0.49001 0.42997,0.49001 h 4.9149 c 0.32152,0 0.55591,-0.25188 0.52395,-0.55774 l -0.67593,-6.474177 c -0.0215,-0.205669 -0.24832,-0.370416 -0.50683,-0.370416 h -3.1381 c -0.25866,0 -0.49774,0.188736 -0.53425,0.422627 l -1.01371,6.489696"
       style="fill:#6b99b5;fill-opacity:1;fill-rule:nonzero;stroke:none;stroke-width:0.0352778" />
    <path
       id="path672"
       d="m 126.86122,99.784597 -0.58812,-5.633509 c -0.0115,-0.108302 -0.0805,-0.204258 -0.18041,-0.271991 h 1.64155 c 0.25851,0 0.48531,0.164747 0.50683,0.370416 l 0.57796,5.535084 h -1.95781"
       style="fill:#9dc0e1;fill-opacity:1;fill-rule:nonzero;stroke:none;stroke-width:0.0352778" />
    <path
       id="path673"
       d="m 122.55609,103.84189 c -0.042,0.26988 0.15036,0.49001 0.42997,0.49001 h 14.31339 c 0.27976,0 0.50645,-0.22013 0.50645,-0.49001 v -6.489696 c 0,-0.233892 -0.20962,-0.422628 -0.46827,-0.422628 h -13.23358 c -0.25852,0 -0.49759,0.188736 -0.53411,0.422628 l -1.01385,6.489696"
       style="fill:#6b99b5;fill-opacity:1;fill-rule:nonzero;stroke:none;stroke-width:0.0352778" />
    <path
       id="path674"
       d="m 134.85386,96.929566 h 2.48377 c 0.25865,0 0.46827,0.188736 0.46827,0.422628 v 6.489696 c 0,0.26988 -0.22669,0.49001 -0.50645,0.49001 h -2.44559 v -7.402334"
       style="fill:#9dc0e1;fill-opacity:1;fill-rule:nonzero;stroke:none;stroke-width:0.0352778" />
    <path
       id="path675"
       d="m 122.25585,106.55546 c -0.0387,0.29845 0.1743,0.54257 0.4761,0.54257 h 17.34108 c 0.3018,0 0.51484,-0.24412 0.47611,-0.54257 l -0.79015,-6.09635 c -0.0321,-0.2473 -0.27824,-0.44627 -0.54984,-0.44627 h -15.61317 c -0.27175,0 -0.51788,0.19897 -0.54984,0.44627 l -0.79029,6.09635"
       style="fill:#29516a;fill-opacity:1;fill-rule:nonzero;stroke:none;stroke-width:0.0352778" />
    <path
       id="path676"
       d="m 137.85811,100.01284 h 1.35104 c 0.2716,0 0.51773,0.19897 0.54984,0.44627 l 0.79015,6.09635 c 0.0387,0.29845 -0.17431,0.54257 -0.47611,0.54257 h -1.50135 l -0.71357,-7.08519"
       style="fill:#466480;fill-opacity:1;fill-rule:nonzero;stroke:none;stroke-width:0.0352778" />
    <path
       id="path677"
       d="m 138.12668,104.30968 c 0,0.27199 0.22024,0.49212 0.49199,0.49212 h 3.54252 c 0.27175,0 0.49195,-0.22013 0.49195,-0.49212 v -1.90218 c 0,-0.27199 -0.2202,-0.49213 -0.49195,-0.49213 h -3.54252 c -0.27175,0 -0.49199,0.22014 -0.49199,0.49213 v 1.90218"
       style="fill:#6b99b5;fill-opacity:1;fill-rule:nonzero;stroke:none;stroke-width:0.0352778" />
    <path
       id="path678"
       d="m 129.7952,105.62201 c 0,0.27164 0.22035,0.49177 0.49213,0.49177 h 3.54238 c 0.27174,0 0.49209,-0.22013 0.49209,-0.49177 v -1.90253 c 0,-0.27164 -0.22035,-0.49212 -0.49209,-0.49212 h -3.54238 c -0.27178,0 -0.49213,0.22048 -0.49213,0.49212 v 1.90253"
       style="fill:#6b99b5;fill-opacity:1;fill-rule:nonzero;stroke:none;stroke-width:0.0352778" />
    <path
       id="path679"
       d="m 119.5615,105.55639 c 0,0.27164 0.22021,0.49178 0.49195,0.49178 h 3.54253 c 0.27174,0 0.49195,-0.22014 0.49195,-0.49178 v -1.90253 c 0,-0.27164 -0.22021,-0.49212 -0.49195,-0.49212 h -3.54253 c -0.27174,0 -0.49195,0.22048 -0.49195,0.49212 v 1.90253"
       style="fill:#6b99b5;fill-opacity:1;fill-rule:nonzero;stroke:none;stroke-width:0.0352778" />
    <path
       id="path680"
       d="m 125.66234,100.11127 c 0,0.19932 0.1615,0.36089 0.36093,0.36089 h 8.85609 c 0.19925,0 0.36075,-0.16157 0.36075,-0.36089 0,-0.19932 -0.1615,-0.360892 -0.36075,-0.360892 h -8.85609 c -0.19943,0 -0.36093,0.161572 -0.36093,0.360892"
       style="fill:#588399;fill-opacity:1;fill-rule:nonzero;stroke:none;stroke-width:0.0352778" />
    <path
       id="path681"
       d="m 136.48546,97.323266 h 0.91955 v 0.7874 h -0.91955 v -0.7874"
       style="fill:#254254;fill-opacity:1;fill-rule:nonzero;stroke:none;stroke-width:0.0352778" />
    <path
       id="path682"
       d="m 136.35662,97.323266 v 0.7874 h -1.31438 v -0.7874 h 1.31438"
       style="fill:#254254;fill-opacity:1;fill-rule:nonzero;stroke:none;stroke-width:0.0352778" />
    <path
       id="path683"
       d="m 134.91337,97.323266 v 0.7874 h -1.70808 v -0.7874 h 1.70808"
       style="fill:#254254;fill-opacity:1;fill-rule:nonzero;stroke:none;stroke-width:0.0352778" />
    <path
       id="path684"
       d="m 133.07646,97.323266 v 0.7874 h -1.77229 v -0.7874 h 1.77229"
       style="fill:#254254;fill-opacity:1;fill-rule:nonzero;stroke:none;stroke-width:0.0352778" />
    <path
       id="path685"
       d="m 126.5808,97.913816 h 3.47694 V 97.4545 h -3.47694 v 0.459316"
       style="fill:#254254;fill-opacity:1;fill-rule:nonzero;stroke:none;stroke-width:0.0352778" />
    <path
       id="path686"
       d="m 124.15354,100.47216 h 9.05302 v 0.52493 h -9.05302 v -0.52493"
       style="fill:#254254;fill-opacity:1;fill-rule:nonzero;stroke:none;stroke-width:0.0352778" />
    <path
       id="path687"
       d="m 123.91704,93.870277 c 0,0.161925 0.1312,0.293159 0.29312,0.293159 h 4.17682 c 0.16179,0 0.29298,-0.131234 0.29298,-0.293159 0,-0.161925 -0.13119,-0.293158 -0.29298,-0.293158 h -4.17682 c -0.16192,0 -0.29312,0.131233 -0.29312,0.293158"
       style="fill:#29516a;fill-opacity:1;fill-rule:nonzero;stroke:none;stroke-width:0.0352778" />
    <path
       id="path688"
       d="m 110.77084,100.17689 c 0,0.27163 0.22035,0.49212 0.49197,0.49212 h 2.75539 c 0.27161,0 0.49195,-0.22049 0.49195,-0.49212 v -0.459321 c 0,-0.271639 -0.22034,-0.491772 -0.49195,-0.491772 h -2.75539 c -0.27162,0 -0.49197,0.220133 -0.49197,0.491772 v 0.459321"
       style="fill:#466480;fill-opacity:1;fill-rule:nonzero;stroke:none;stroke-width:0.0352778" />
    <path
       id="path689"
       d="m 112.73882,104.30968 c 0,0.27199 -0.22021,0.49212 -0.49195,0.49212 h -0.1312 c -0.27174,0 -0.49195,-0.22013 -0.49195,-0.49212 v -3.67348 c 0,-0.27164 0.22021,-0.49212 0.49195,-0.49212 h 0.1312 c 0.27174,0 0.49195,0.22048 0.49195,0.49212 v 3.67348"
       style="fill:#6b99b5;fill-opacity:1;fill-rule:nonzero;stroke:none;stroke-width:0.0352778" />
    <path
       id="path690"
       d="m 115.42847,102.62305 c 0,0.29739 -0.2395,0.51364 -0.53083,0.4833 l -2.16253,-0.22507 c -0.25301,-0.0265 -0.45547,-0.26776 -0.45547,-0.5394 v -5.248272 c 0,-0.271639 0.20246,-0.509058 0.45547,-0.530225 l 2.16253,-0.181681 c 0.29133,-0.02434 0.53083,0.19685 0.53083,0.494242 v 5.747106"
       style="fill:#588399;fill-opacity:1;fill-rule:nonzero;stroke:none;stroke-width:0.0352778" />
    <path
       id="path691"
       d="m 109.19643,109.98446 h 27.61905 c 0.0176,-1.34373 1.11153,-2.42746 2.45911,-2.42746 h 16.07252 c 1.35855,0 2.45992,1.10137 2.45992,2.46027 0,1.35855 -1.10137,2.45992 -2.45992,2.45992 h -9.47702 -6.5955 -30.07816 c -0.68846,0 -1.24643,-0.5581 -1.24643,-1.24636 0,-0.68827 0.55797,-1.24637 1.24643,-1.24637"
       style="fill:#254254;fill-opacity:1;fill-rule:nonzero;stroke:none;stroke-width:0.0352778" />
    <path
       id="path692"
       d="m 111.03322,110.11958 c 0,0.0705 0.12527,0.12735 0.27961,0.12735 h 24.32098 c 3.28003,0 12.20019,-0.13617 19.28679,-2.62432 3.01519,-1.05833 7.24182,-2.14453 4.32964,-2.75519 -0.32032,-0.067 -13.27503,-0.9839 -14.16967,-0.9839 h -33.65364 c -0.21746,0 -0.39371,0.24518 -0.39371,0.54046 v 5.6956"
       style="fill:#588399;fill-opacity:1;fill-rule:nonzero;stroke:none;stroke-width:0.0352778" />
    <path
       id="path693"
       d="m 156.74093,106.58933 c -7.0866,2.48814 -16.00658,2.62431 -19.28671,2.62431 h -24.32086 c -0.15448,0 -0.27961,-0.0568 -0.27961,-0.12735 v -5.20277 h -1.42682 c -0.21746,0 -0.39371,0.24518 -0.39371,0.54046 v 5.6956 c 0,0.0705 0.12527,0.12735 0.27961,0.12735 h 24.32098 c 3.28003,0 12.20019,-0.13617 19.28679,-2.62432 2.26342,-0.79445 5.20912,-1.60443 5.30578,-2.21756 -1.0347,0.38065 -2.34633,0.78458 -3.48545,1.18428"
       style="fill:#254254;fill-opacity:1;fill-rule:nonzero;stroke:none;stroke-width:0.0352778" />
    <path
       id="path694"
       d="m 151.83732,106.76889 c 1.44322,0 3.86327,0.57926 3.08328,0.85372 -7.08484,2.49308 -16.00676,2.62432 -19.28679,2.62432 h -26.68253 c -0.15448,0 -0.2796,-0.0568 -0.2796,-0.12735 l 2.36154,-3.35069 h 40.8041"
       style="fill:#6b99b5;fill-opacity:1;fill-rule:nonzero;stroke:none;stroke-width:0.0352778" />
    <path
       id="path695"
       d="m 136.48655,106.50748 c 0,0.21731 0.17625,0.3937 0.3937,0.3937 h 3.4768 c 0.21745,0 0.3937,-0.17639 0.3937,-0.3937 0,-0.21731 -0.17625,-0.3937 -0.3937,-0.3937 h -3.4768 c -0.21745,0 -0.3937,0.17639 -0.3937,0.3937"
       style="fill:#466480;fill-opacity:1;fill-rule:nonzero;stroke:none;stroke-width:0.0352778" />
    <path
       id="path696"
       d="m 123.268,106.50748 c 0,0.21731 0.17611,0.3937 0.39356,0.3937 h 3.4768 c 0.21745,0 0.3937,-0.17639 0.3937,-0.3937 0,-0.21731 -0.17625,-0.3937 -0.3937,-0.3937 h -3.4768 c -0.21745,0 -0.39356,0.17639 -0.39356,0.3937"
       style="fill:#466480;fill-opacity:1;fill-rule:nonzero;stroke:none;stroke-width:0.0352778" />
    <path
       id="path697"
       d="m 141.14431,109.13144 h 0.72157 v -1.50883 h -0.72157 v 1.50883"
       style="fill:#466480;fill-opacity:1;fill-rule:nonzero;stroke:none;stroke-width:0.0352778" />
    <path
       id="path698"
       d="m 140.09469,109.13144 h 0.72168 v -1.50883 h -0.72168 v 1.50883"
       style="fill:#466480;fill-opacity:1;fill-rule:nonzero;stroke:none;stroke-width:0.0352778" />
    <path
       id="path699"
       d="m 112.93574,109.13144 h 0.72153 v -1.50883 h -0.72153 v 1.50883"
       style="fill:#466480;fill-opacity:1;fill-rule:nonzero;stroke:none;stroke-width:0.0352778" />
    <path
       id="path700"
       d="m 111.88608,109.13144 h 0.72154 v -1.50883 h -0.72154 v 1.50883"
       style="fill:#466480;fill-opacity:1;fill-rule:nonzero;stroke:none;stroke-width:0.0352778" />
    <path
       id="path701"
       d="m 108.17669,110.51539 c 0.12292,0.55915 0.62053,0.9779 1.21653,0.9779 h 30.07829 6.59543 9.47702 c 1.01565,0 1.88701,-0.6156 2.26272,-1.49401 l 3.5e-4,0.018 c 0,1.35855 -1.10137,2.45992 -2.45992,2.45992 h -9.47702 -6.5955 -30.07816 c -0.68846,0 -1.24643,-0.5581 -1.24643,-1.24636 0,-0.26635 0.0843,-0.51294 0.22669,-0.71544"
       style="fill:#162b35;fill-opacity:1;fill-rule:nonzero;stroke:none;stroke-width:0.0352778" />
    <path
       id="path702"
       d="m 128.2379,98.690986 h 2.49714 v -0.249767 h -2.49714 v 0.249767"
       style="fill:#588399;fill-opacity:1;fill-rule:nonzero;stroke:none;stroke-width:0.0352778" />
    <path
       id="path703"
       d="m 133.32587,99.370789 h 1.21723 v -0.454731 h -1.21723 v 0.454731"
       style="fill:#588399;fill-opacity:1;fill-rule:nonzero;stroke:none;stroke-width:0.0352778" />
    <path
       id="path704"
       d="m 131.67156,99.464628 h 1.21736 v -0.455084 h -1.21736 v 0.455084"
       style="fill:#588399;fill-opacity:1;fill-rule:nonzero;stroke:none;stroke-width:0.0352778" />
    <path
       id="path705"
       d="m 159.71309,105.26112 c -0.3302,-0.0674 -13.67367,-0.98425 -14.59513,-0.98425 h -34.06944 c 0.047,-0.22507 0.19844,-0.39335 0.37841,-0.39335 h 33.65364 c 0.89464,0 13.84935,0.91687 14.16967,0.9839 0.71191,0.14922 0.99625,0.32702 0.9772,0.52564 -0.13935,-0.0462 -0.30904,-0.0903 -0.51435,-0.13194"
       style="fill:#e4355c;fill-opacity:1;fill-rule:nonzero;stroke:none;stroke-width:0.0352778" />
    <path
       id="path706"
       d="m 140.53937,101.23487 2.14464,-1.04775 -0.0239,-0.0487 -2.14464,1.04775 0.0238,0.0487"
       style="fill:#1e4559;fill-opacity:1;fill-rule:nonzero;stroke:none;stroke-width:0.0352778" />
    <path
       id="path707"
       d="m 141.06564,101.07823 0.72993,-0.35666 -0.11091,-0.22718 -0.72997,0.35665 0.11095,0.22719"
       style="fill:#29516a;fill-opacity:1;fill-rule:nonzero;stroke:none;stroke-width:0.0352778" />
    <path
       id="path708"
       d="m 139.1798,101.91537 c -0.0584,-0.2547 0.10294,-0.52881 0.27534,-0.8128 0.23685,-0.39017 0.44439,-0.66286 0.80338,-0.59196 l 0.60717,0.1203 c 0.29682,0.0589 0.39906,0.29034 0.5304,0.66075 0.0744,0.20991 0.0845,0.43004 0.028,0.62371 h -2.24426"
       style="fill:#9dc0e1;fill-opacity:1;fill-rule:nonzero;stroke:none;stroke-width:0.0352778" />
    <path
       id="path709"
       d="m 154.9206,107.62261 c -0.12559,0.0441 -0.25153,0.0875 -0.37818,0.13018 -0.71084,-0.16581 -1.65523,-0.29528 -2.37066,-0.29528 h -41.62402 l 0.48548,-0.68862 h 40.8041 c 1.44322,0 3.86327,0.57926 3.08328,0.85372"
       style="fill:#f2736d;fill-opacity:1;fill-rule:nonzero;stroke:none;stroke-width:0.0352778" />
    <path
       id="path710"
       d="m 115.14624,97.857725 -2.8666,0.1651 v -0.929217 c 0,-0.271639 0.20246,-0.509058 0.45547,-0.530225 l 2.16253,-0.181681 c 0.29133,-0.02434 0.53083,0.19685 0.53083,0.494242 v 1.0033 c -0.0876,-0.01905 -0.18271,-0.02716 -0.28223,-0.02152"
       style="fill:#6b99b5;fill-opacity:1;fill-rule:nonzero;stroke:none;stroke-width:0.0352778" />
    <path
       id="path711"
       d="m 115.38701,101.79437 0.0415,0.002 v 0.82691 c 0,0.29739 -0.2395,0.51364 -0.53083,0.4833 l -2.16253,-0.22507 c -0.25301,-0.0265 -0.45547,-0.26776 -0.45547,-0.5394 v -0.77258 l 3.10737,0.22507"
       style="fill:#447284;fill-opacity:1;fill-rule:nonzero;stroke:none;stroke-width:0.0352778" />
  </g>
</svg>
