<?xml version="1.0" encoding="UTF-8" standalone="no"?>
<!-- Created with Inkscape (http://www.inkscape.org/) -->

<svg
   width="80.905708mm"
   height="20.01354mm"
   viewBox="0 0 80.905708 20.01354"
   version="1.1"
   id="svg1"
   inkscape:version="1.3.2 (091e20ef0f, 2023-11-25)"
   sodipodi:docname="destroyer.svg"
   xmlns:inkscape="http://www.inkscape.org/namespaces/inkscape"
   xmlns:sodipodi="http://sodipodi.sourceforge.net/DTD/sodipodi-0.dtd"
   xmlns="http://www.w3.org/2000/svg"
   xmlns:svg="http://www.w3.org/2000/svg">
  <sodipodi:namedview
     id="namedview1"
     pagecolor="#ffffff"
     bordercolor="#000000"
     borderopacity="0.25"
     inkscape:showpageshadow="2"
     inkscape:pageopacity="0.0"
     inkscape:pagecheckerboard="0"
     inkscape:deskcolor="#d1d1d1"
     inkscape:document-units="mm"
     inkscape:zoom="0.56066468"
     inkscape:cx="257.72981"
     inkscape:cy="227.40865"
     inkscape:window-width="1900"
     inkscape:window-height="1028"
     inkscape:window-x="0"
     inkscape:window-y="0"
     inkscape:window-maximized="1"
     inkscape:current-layer="layer1" />
  <defs
     id="defs1" />
  <g
     inkscape:label="Layer 1"
     inkscape:groupmode="layer"
     id="layer1"
     transform="translate(-37.041672,-88.106248)">
    <path
       id="path476"
       d="m 48.613489,99.98036 c 0,0.14429 -0.154164,0.27065 -0.343959,0.27065 h -1.979083 c -0.190147,0 -0.252589,-0.12636 -0.147814,-0.27065 l 0.608542,-0.838799 c 0.05539,-0.0762 0.199672,-0.134797 0.325261,-0.134797 h 1.309511 c 0.125589,0 0.227542,0.0586 0.227542,0.134797 v 0.838799"
       style="fill:#4f6d8c;fill-opacity:1;fill-rule:nonzero;stroke:none;stroke-width:0.0352778" />
    <path
       id="path477"
       d="m 42.892844,101.94188 h -5.386212 v -0.97127 h 5.386212 v 0.97127"
       style="fill:#4f6d8c;fill-opacity:1;fill-rule:nonzero;stroke:none;stroke-width:0.0352778" />
    <path
       id="path478"
       d="m 69.382223,90.328395 h -1.147939 v -0.922514 h 1.147939 v 0.922514"
       style="fill:#36556e;fill-opacity:1;fill-rule:nonzero;stroke:none;stroke-width:0.0352778" />
    <path
       id="path479"
       d="m 69.821784,89.440453 -0.05574,0.05539 h -1.884539 l -0.05539,-0.05539 V 88.75677 l 0.05539,-0.05539 h 1.884539 l 0.05574,0.05539 v 0.683683"
       style="fill:#4f6d8c;fill-opacity:1;fill-rule:nonzero;stroke:none;stroke-width:0.0352778" />
    <path
       id="path480"
       d="m 85.486177,97.657001 h -0.944739 v -0.759178 h 0.944739 v 0.759178"
       style="fill:#36556e;fill-opacity:1;fill-rule:nonzero;stroke:none;stroke-width:0.0352778" />
    <path
       id="path481"
       d="m 85.847774,96.926363 -0.04551,0.04561 H 84.2511 l -0.04586,-0.04561 v -0.562645 l 0.04586,-0.04551 h 1.551164 l 0.04551,0.04551 v 0.562645"
       style="fill:#4f6d8c;fill-opacity:1;fill-rule:nonzero;stroke:none;stroke-width:0.0352778" />
    <path
       id="path482"
       d="M 52.256272,97.609729 H 51.7518 v -0.405271 h 0.504472 v 0.405271"
       style="fill:#36556e;fill-opacity:1;fill-rule:nonzero;stroke:none;stroke-width:0.0352778" />
    <path
       id="path483"
       d="m 52.449242,97.219592 -0.02434,0.02427 h -0.827969 l -0.02434,-0.02427 v -0.300249 l 0.02434,-0.02441 H 52.4249 l 0.02434,0.02441 v 0.300249"
       style="fill:#4f6d8c;fill-opacity:1;fill-rule:nonzero;stroke:none;stroke-width:0.0352778" />
    <path
       id="path484"
       d="m 75.895913,94.307376 h 0.655461 v -1.336675 h -0.288572 l -0.366889,1.336675"
       style="fill:#4f6d8c;fill-opacity:1;fill-rule:nonzero;stroke:none;stroke-width:0.0352778" />
    <path
       id="path485"
       d="m 77.308082,94.307376 h -0.655108 v -1.336675 h 0.288219 l 0.366889,1.336675"
       style="fill:#4f6d8c;fill-opacity:1;fill-rule:nonzero;stroke:none;stroke-width:0.0352778" />
    <path
       id="path486"
       d="m 90.288541,100.22346 h 1.406878 v -1.857728 h -0.618772 l -0.788106,1.857728"
       style="fill:#4f6d8c;fill-opacity:1;fill-rule:nonzero;stroke:none;stroke-width:0.0352778" />
    <path
       id="path487"
       d="m 92.967536,100.22346 h -1.406878 v -1.857728 h 0.619125 l 0.787753,1.857728"
       style="fill:#36556e;fill-opacity:1;fill-rule:nonzero;stroke:none;stroke-width:0.0352778" />
    <path
       id="path488"
       d="m 61.523745,90.328395 h -1.147939 v -0.922514 h 1.147939 v 0.922514"
       style="fill:#36556e;fill-opacity:1;fill-rule:nonzero;stroke:none;stroke-width:0.0352778" />
    <path
       id="path489"
       d="M 73.929529,97.968574 70.19079,90.285003 c -0.05256,-0.07267 -0.321381,-0.13088 -0.600781,-0.13088 h -9.587442 c -0.279047,0 -0.547864,0.05821 -0.60078,0.13088 l -4.798131,7.683571 h 19.325873"
       style="fill:#5c789a;fill-opacity:1;fill-rule:nonzero;stroke:none;stroke-width:0.0352778" />
    <path
       id="path490"
       d="M 73.680821,97.457047 70.19079,90.285003 c -0.03246,-0.0448 -1.719086,-0.08431 -1.867958,-0.10795 l 3.002139,7.279994 h 2.35585"
       style="fill:#396384;fill-opacity:1;fill-rule:nonzero;stroke:none;stroke-width:0.0352778" />
    <path
       id="path491"
       d="m 81.819405,101.56264 -3.019426,-7.1519 c -0.05256,-0.08364 -0.32138,-0.151024 -0.60078,-0.151024 h -8.26629 l 3.083278,7.302924 h 8.803218"
       style="fill:#4f6d8c;fill-opacity:1;fill-rule:nonzero;stroke:none;stroke-width:0.0352778" />
    <path
       id="path492"
       d="m 88.094616,100.50318 -1.751894,-2.781268 c -0.05256,-0.08368 -0.321381,-0.151059 -0.600781,-0.151059 H 52.055894 c -0.2794,0 -0.548216,0.06738 -0.60078,0.151059 l -1.752248,2.781268 h 38.39175"
       style="fill:#36556e;fill-opacity:1;fill-rule:nonzero;stroke:none;stroke-width:0.0352778" />
    <path
       id="path493"
       d="m 103.65917,99.861439 2.59998,-1.976261 -0.0448,-0.05884 -2.59997,1.976262 0.0448,0.05884"
       style="fill:#36556e;fill-opacity:1;fill-rule:nonzero;stroke:none;stroke-width:0.0352778" />
    <path
       id="path494"
       d="m 104.32381,99.511554 0.88512,-0.672747 -0.2092,-0.275202 -0.88512,0.672465 0.2092,0.275484"
       style="fill:#4f6d8c;fill-opacity:1;fill-rule:nonzero;stroke:none;stroke-width:0.0352778" />
    <path
       id="path495"
       d="m 104.87555,101.00659 -2.60068,0.43007 c -0.502,-0.34889 -0.31468,-0.89253 -0.10583,-1.464026 0.21449,-0.586634 0.42051,-1.007886 0.9211,-1.007886 h 0.84667 c 0.41416,0 0.61277,0.283316 0.88759,0.745385 0.24941,0.420157 0.28398,0.919687 0.0512,1.296457"
       style="fill:#5c789a;fill-opacity:1;fill-rule:nonzero;stroke:none;stroke-width:0.0352778" />
    <path
       id="path496"
       d="m 96.374664,99.133023 2.599972,-1.976261 -0.0448,-0.05898 -2.599972,1.976402 0.0448,0.05884"
       style="fill:#36556e;fill-opacity:1;fill-rule:nonzero;stroke:none;stroke-width:0.0352778" />
    <path
       id="path497"
       d="m 97.039297,98.783138 0.88512,-0.672782 -0.20955,-0.275202 -0.884767,0.672782 0.209197,0.275202"
       style="fill:#4f6d8c;fill-opacity:1;fill-rule:nonzero;stroke:none;stroke-width:0.0352778" />
    <path
       id="path498"
       d="m 97.591042,100.27814 -2.600678,0.43011 c -0.502003,-0.34894 -0.314678,-0.892566 -0.105834,-1.464172 0.214137,-0.586634 0.420159,-1.007745 0.920751,-1.007745 H 96.6523 c 0.413808,0 0.612775,0.283174 0.887236,0.745349 0.249767,0.420193 0.284339,0.919727 0.05151,1.296458"
       style="fill:#5c789a;fill-opacity:1;fill-rule:nonzero;stroke:none;stroke-width:0.0352778" />
    <path
       id="path499"
       d="M 101.53792,104.00136 H 45.708363 v -3.93598 h 55.829557 v 3.93598"
       style="fill:#4f6d8c;fill-opacity:1;fill-rule:nonzero;stroke:none;stroke-width:0.0352778" />
    <path
       id="path500"
       d="m 103.69904,99.810992 -0.59302,0.664348 H 48.897475 c -0.327378,0.77724 -1.899356,1.36663 -3.790245,1.36663 h -7.953023 l 0.65652,1.91311 H 113.8474 l 4.09998,-4.591753 -14.24834,0.647665"
       style="fill:#274152;fill-opacity:1;fill-rule:nonzero;stroke:none;stroke-width:0.0352778" />
    <path
       id="path501"
       d="m 44.460236,105.22902 c 2.328333,0.16828 5.089525,0.37857 7.786864,0.58734 H 44.460236 Z M 113.82764,103.6574 H 37.754635 l 0.331964,1.2234 c 0.05891,0 0.823736,0.001 0.907697,0.004 l 0.428625,2.0829 h 1.2954 l 0.405342,-1.96896 c 0.732014,0.047 1.593498,0.10584 2.544939,0.17364 v 0.6441 h -1.007533 v 0.35994 h 13.72094 c 2.79788,0.32234 3.333044,0.64728 3.333044,0.64728 0,0 27.802771,0 45.189777,0 1.4926,0 3.42547,1.29533 5.54073,1.29533 2.87831,0 3.16724,0.0734 2.44687,-1.2234 -0.71967,-1.29494 0.93521,-3.23811 0.93521,-3.23811"
       style="fill:#e4355c;fill-opacity:1;fill-rule:nonzero;stroke:none;stroke-width:0.0352778" />
    <path
       id="path502"
       d="M 47.594314,101.5414 H 37.093882 l -0.05221,-0.24624 h 10.552643 v 0.24624"
       style="fill:#04090d;fill-opacity:1;fill-rule:nonzero;stroke:none;stroke-width:0.0352778" />
    <path
       id="path503"
       d="m 112.71216,106.1001 c 0.0332,-1.17161 1.11548,-2.4427 1.11548,-2.4427 H 37.754635 l 0.209197,0.77156 74.748328,1.67114"
       style="fill:#f2736d;fill-opacity:1;fill-rule:nonzero;stroke:none;stroke-width:0.0352778" />
    <path
       id="path504"
       d="m 37.299552,102.26569 0.511175,1.48939 H 113.8474 l 3.77366,-4.226311 -21.307779,2.810231 -59.013729,-0.0733"
       style="fill:#19313d;fill-opacity:1;fill-rule:nonzero;stroke:none;stroke-width:0.0352778" />
    <path
       id="path505"
       d="m 70.530162,90.065576 c 0,0.09772 -0.07902,0.176741 -0.176741,0.176741 H 58.963284 c -0.09772,0 -0.176742,-0.07902 -0.176742,-0.176741 0,-0.09737 0.07902,-0.176389 0.176742,-0.176389 h 11.390137 c 0.09772,0 0.176741,0.07902 0.176741,0.176389"
       style="fill:#4f6d8c;fill-opacity:1;fill-rule:nonzero;stroke:none;stroke-width:0.0352778" />
    <path
       id="path506"
       d="m 79.062093,94.276402 c 0,0.09768 -0.07902,0.176636 -0.176741,0.176636 h -9.012415 c -0.09772,0 -0.176741,-0.07895 -0.176741,-0.176636 0,-0.09744 0.07902,-0.176389 0.176741,-0.176389 h 9.012415 c 0.09772,0 0.176741,0.07895 0.176741,0.176389"
       style="fill:#36556e;fill-opacity:1;fill-rule:nonzero;stroke:none;stroke-width:0.0352778" />
    <path
       id="path507"
       d="m 86.531458,97.664692 c 0,0.09786 -0.07902,0.176812 -0.176742,0.176812 H 51.471342 c -0.09737,0 -0.176389,-0.07895 -0.176389,-0.176812 0,-0.09726 0.07902,-0.176389 0.176389,-0.176389 h 34.883374 c 0.09772,0 0.176742,0.07913 0.176742,0.176389"
       style="fill:#4f6d8c;fill-opacity:1;fill-rule:nonzero;stroke:none;stroke-width:0.0352778" />
    <path
       id="path508"
       d="m 67.969701,92.052385 c 0,0.07303 -0.05962,0.132291 -0.132644,0.132291 h -6.445604 c -0.07338,0 -0.132644,-0.05927 -0.132644,-0.132291 v -0.971127 c 0,-0.07345 0.05927,-0.13268 0.132644,-0.13268 h 6.445604 c 0.07303,0 0.132644,0.05923 0.132644,0.13268 v 0.971127"
       style="fill:#4f6d8c;fill-opacity:1;fill-rule:nonzero;stroke:none;stroke-width:0.0352778" />
    <path
       id="path509"
       d="m 67.969701,94.392431 c 0,0.07303 -0.05962,0.132291 -0.132644,0.132291 h -6.445604 c -0.07338,0 -0.132644,-0.05927 -0.132644,-0.132291 v -1.63382 c 0,-0.07288 0.05927,-0.132292 0.132644,-0.132292 h 6.445604 c 0.07303,0 0.132644,0.05941 0.132644,0.132292 v 1.63382"
       style="fill:#4f6d8c;fill-opacity:1;fill-rule:nonzero;stroke:none;stroke-width:0.0352778" />
    <path
       id="path510"
       d="m 61.962953,89.440453 -0.05539,0.05539 h -1.884539 l -0.05539,-0.05539 V 88.75677 l 0.05539,-0.05539 h 1.884539 l 0.05539,0.05539 v 0.683683"
       style="fill:#4f6d8c;fill-opacity:1;fill-rule:nonzero;stroke:none;stroke-width:0.0352778" />
    <path
       id="path511"
       d="m 60.640742,92.096482 h -1.236133 v -0.971127 h 1.236133 v 0.971127"
       style="fill:#4f6d8c;fill-opacity:1;fill-rule:nonzero;stroke:none;stroke-width:0.0352778" />
    <path
       id="path512"
       d="m 60.640742,93.509357 h -1.236133 v -0.971232 h 1.236133 v 0.971232"
       style="fill:#4f6d8c;fill-opacity:1;fill-rule:nonzero;stroke:none;stroke-width:0.0352778" />
    <path
       id="path513"
       d="m 60.11087,95.078125 h -0.706261 v -1.283371 h 0.706261 v 1.283371"
       style="fill:#4f6d8c;fill-opacity:1;fill-rule:nonzero;stroke:none;stroke-width:0.0352778" />
    <path
       id="path514"
       d="m 70.536865,92.184676 h -0.706261 l -0.366889,-1.28337 h 0.706614 l 0.366536,1.28337"
       style="fill:#36556e;fill-opacity:1;fill-rule:nonzero;stroke:none;stroke-width:0.0352778" />
    <path
       id="path515"
       d="m 71.066737,93.709735 h -0.706261 l -0.366889,-1.283794 h 0.706261 l 0.366889,1.283794"
       style="fill:#36556e;fill-opacity:1;fill-rule:nonzero;stroke:none;stroke-width:0.0352778" />
    <path
       id="path516"
       d="m 78.388641,95.275328 h -5.474406 v -0.264866 h 5.474406 v 0.264866"
       style="fill:#36556e;fill-opacity:1;fill-rule:nonzero;stroke:none;stroke-width:0.0352778" />
    <path
       id="path517"
       d="m 63.543398,89.977381 h 0.917222 v -1.871133 h -0.403578 l -0.513644,1.871133"
       style="fill:#4f6d8c;fill-opacity:1;fill-rule:nonzero;stroke:none;stroke-width:0.0352778" />
    <path
       id="path518"
       d="m 65.520365,89.977381 h -0.917223 v -1.871133 h 0.403578 l 0.513645,1.871133"
       style="fill:#4f6d8c;fill-opacity:1;fill-rule:nonzero;stroke:none;stroke-width:0.0352778" />
    <path
       id="path519"
       d="m 92.529033,97.381799 c 0.0194,0.06876 0.03069,0.141781 0.03069,0.218405 0,0.379236 -0.262114,0.686541 -0.585611,0.686541 H 91.2929 c -0.323498,0 -0.585611,-0.307305 -0.585611,-0.686541 0,-0.07662 0.01094,-0.149649 0.03069,-0.218405 -0.117828,0.123472 -0.1905,0.290089 -0.1905,0.473781 0,0.379236 0.307622,0.686929 0.686859,0.686929 h 0.798336 c 0.379236,0 0.686858,-0.307693 0.686858,-0.686929 0,-0.183692 -0.07267,-0.350309 -0.1905,-0.473781"
       style="fill:#36556e;fill-opacity:1;fill-rule:nonzero;stroke:none;stroke-width:0.0352778" />
    <path
       id="path520"
       d="m 92.511747,97.448509 c 0,0.4717 -0.382411,0.854358 -0.854428,0.854358 -0.471664,0 -0.854075,-0.382658 -0.854075,-0.854358 0,-0.471981 0.382411,-0.854392 0.854075,-0.854392 0.472017,0 0.854428,0.382411 0.854428,0.854392"
       style="fill:#5c789a;fill-opacity:1;fill-rule:nonzero;stroke:none;stroke-width:0.0352778" />
    <path
       id="path521"
       d="m 67.351281,95.628529 h -2.472266 v -0.529873 h 2.472266 v 0.529873"
       style="fill:#36556e;fill-opacity:1;fill-rule:nonzero;stroke:none;stroke-width:0.0352778" />
    <path
       id="path522"
       d="m 64.084559,96.158366 h -1.942747 v -0.35306 h 1.942747 v 0.35306"
       style="fill:#36556e;fill-opacity:1;fill-rule:nonzero;stroke:none;stroke-width:0.0352778" />
    <path
       id="path523"
       d="m 69.735354,96.776432 h -3.973336 v -0.35306 h 3.973336 v 0.35306"
       style="fill:#36556e;fill-opacity:1;fill-rule:nonzero;stroke:none;stroke-width:0.0352778" />
    <path
       id="path524"
       d="m 60.552548,95.275328 h -3.267075 v -0.794703 h 3.267075 v 0.794703"
       style="fill:#36556e;fill-opacity:1;fill-rule:nonzero;stroke:none;stroke-width:0.0352778" />
    <path
       id="path525"
       d="m 50.511786,101.11627 h -1.110192 v -0.37952 h 1.110192 v 0.37952"
       style="fill:#04090d;fill-opacity:1;fill-rule:nonzero;stroke:none;stroke-width:0.0352778" />
    <path
       id="path526"
       d="m 52.189244,101.11627 h -1.109839 v -0.37952 h 1.109839 v 0.37952"
       style="fill:#04090d;fill-opacity:1;fill-rule:nonzero;stroke:none;stroke-width:0.0352778" />
    <path
       id="path527"
       d="m 53.867056,101.11627 h -1.110192 v -0.37952 h 1.110192 v 0.37952"
       style="fill:#04090d;fill-opacity:1;fill-rule:nonzero;stroke:none;stroke-width:0.0352778" />
    <path
       id="path528"
       d="m 55.544867,101.11627 h -1.110192 v -0.37952 h 1.110192 v 0.37952"
       style="fill:#04090d;fill-opacity:1;fill-rule:nonzero;stroke:none;stroke-width:0.0352778" />
    <path
       id="path529"
       d="m 57.222325,101.11627 h -1.109839 v -0.37952 h 1.109839 v 0.37952"
       style="fill:#04090d;fill-opacity:1;fill-rule:nonzero;stroke:none;stroke-width:0.0352778" />
    <path
       id="path530"
       d="m 58.900137,101.11627 h -1.110192 v -0.37952 h 1.110192 v 0.37952"
       style="fill:#04090d;fill-opacity:1;fill-rule:nonzero;stroke:none;stroke-width:0.0352778" />
    <path
       id="path531"
       d="m 62.93662,102.29642 v -1.10533 h -3.885142 v 1.10533 h 3.885142"
       style="fill:#36556e;fill-opacity:1;fill-rule:nonzero;stroke:none;stroke-width:0.0352778" />
    <path
       id="path532"
       d="m 63.425217,101.20697 h -4.944886 v -0.17667 h 4.944886 v 0.17667"
       style="fill:#5c789a;fill-opacity:1;fill-rule:nonzero;stroke:none;stroke-width:0.0352778" />
    <path
       id="path533"
       d="m 68.764157,102.29642 v -1.10533 h -3.885142 v 1.10533 h 3.885142"
       style="fill:#36556e;fill-opacity:1;fill-rule:nonzero;stroke:none;stroke-width:0.0352778" />
    <path
       id="path534"
       d="M 69.252754,101.20697 H 64.30822 v -0.17667 h 4.944534 v 0.17667"
       style="fill:#5c789a;fill-opacity:1;fill-rule:nonzero;stroke:none;stroke-width:0.0352778" />
  </g>
</svg>
